<?xml version="1.0" encoding="UTF-8" standalone="no"?>
<!-- Generated by graphviz version 2.43.0 (0)
 -->

<!-- Title: G Pages: 1 -->

<svg
   width="275pt"
   height="109pt"
   viewBox="0 0 275 109"
   version="1.1"
   id="svg82"
   sodipodi:docname="api_docs_folder.svg"
   inkscape:version="1.2.2 (b0a8486541, 2022-12-01)"
   xmlns:inkscape="http://www.inkscape.org/namespaces/inkscape"
   xmlns:sodipodi="http://sodipodi.sourceforge.net/DTD/sodipodi-0.dtd"
   xmlns="http://www.w3.org/2000/svg"
   xmlns:svg="http://www.w3.org/2000/svg">
  <defs
     id="defs86" />
  <sodipodi:namedview
     id="namedview84"
     pagecolor="#ffffff"
     bordercolor="#666666"
     borderopacity="1.0"
     inkscape:showpageshadow="2"
     inkscape:pageopacity="0.0"
     inkscape:pagecheckerboard="0"
     inkscape:deskcolor="#d1d1d1"
     inkscape:document-units="pt"
     showgrid="false"
     inkscape:zoom="3.3430851"
     inkscape:cx="183.51313"
     inkscape:cy="120.54733"
     inkscape:window-width="1920"
     inkscape:window-height="1008"
     inkscape:window-x="0"
     inkscape:window-y="0"
     inkscape:window-maximized="1"
     inkscape:current-layer="svg82" />
  <g
     id="node1"
     class="node"
     transform="translate(0.5,180.5)">
    <title
       id="title4">ToolkitEditor_1</title>
    <polygon
       fill="#ffffff"
       stroke="#000000"
       points="167.5,-180 108.5,-180 108.5,-144 167.5,-144 "
       id="polygon6" />
    <text
       text-anchor="middle"
       x="138"
       y="-160.10001"
       font-family="arial"
       font-size="8px"
       id="text8">ToolkitEditor</text>
  </g>
  <polygon
     fill="#ffffff"
     stroke="#000000"
     points="0,-72 54,-72 54,-108 0,-108 "
     id="polygon13"
     transform="translate(0.5,180.5)"
     style="stroke:#ff0000;stroke-opacity:1" />
  <text
     text-anchor="middle"
     x="27.5"
     y="92.400002"
     font-family="arial"
     font-size="8px"
     id="text15"
     style="fill:#ff0000">doc_html</text>
  <path
     fill="none"
     stroke="#000000"
     d="M 111.35,36.62 C 96.97,45.69 79.12,56.95 63.59,66.74"
     id="path20"
     style="stroke:#ff0000;stroke-opacity:1" />
  <polygon
     fill="#000000"
     stroke="#000000"
     points="64.58,-110.56 54.26,-108.19 60.85,-116.48 "
     id="polygon22"
     transform="translate(0.5,180.5)"
     style="fill:#ff0000;fill-opacity:1;stroke:#ff0000;stroke-opacity:1" />
  <g
     id="node4"
     class="node"
     transform="translate(0.5,180.5)">
    <title
       id="title25">linux_menu_4</title>
    <polygon
       fill="#ffffff"
       stroke="#000000"
       points="129.5,-108 72.5,-108 72.5,-72 129.5,-72 "
       id="polygon27" />
    <text
       text-anchor="middle"
       x="101"
       y="-88.099998"
       font-family="arial"
       font-size="8px"
       id="text29">linux_menu</text>
  </g>
  <g
     id="edge3"
     class="edge"
     transform="translate(0.5,180.5)">
    <title
       id="title32">ToolkitEditor_1-&gt;linux_menu_4</title>
    <path
       fill="none"
       stroke="#000000"
       d="m 128.85,-143.7 c -4.25,8.06 -9.41,17.81 -14.12,26.72"
       id="path34" />
    <polygon
       fill="#000000"
       stroke="#000000"
       points="110.04,-108.1 111.62,-118.58 117.81,-115.31 "
       id="polygon36" />
  </g>
  <g
     id="node5"
     class="node"
     transform="translate(0.5,180.5)">
    <title
       id="title39">resources_5</title>
    <polygon
       fill="#ffffff"
       stroke="#000000"
       points="202,-108 148,-108 148,-72 202,-72 "
       id="polygon41" />
    <text
       text-anchor="middle"
       x="175"
       y="-88.099998"
       font-family="arial"
       font-size="8px"
       id="text43">resources</text>
  </g>
  <g
     id="edge4"
     class="edge"
     transform="translate(0.5,180.5)">
    <title
       id="title46">ToolkitEditor_1-&gt;resources_5</title>
    <path
       fill="none"
       stroke="#000000"
       d="m 147.15,-143.7 c 4.25,8.06 9.41,17.81 14.12,26.72"
       id="path48" />
    <polygon
       fill="#000000"
       stroke="#000000"
       points="165.96,-108.1 158.19,-115.31 164.38,-118.58 "
       id="polygon50" />
  </g>
  <g
     id="node6"
     class="node"
     transform="translate(0.5,180.5)">
    <title
       id="title53">src_6</title>
    <polygon
       fill="#ffffff"
       stroke="#000000"
       points="274,-108 220,-108 220,-72 274,-72 "
       id="polygon55" />
    <text
       text-anchor="middle"
       x="247"
       y="-88.099998"
       font-family="arial"
       font-size="8px"
       id="text57">src</text>
  </g>
  <g
     id="edge5"
     class="edge"
     transform="translate(0.5,180.5)">
    <title
       id="title60">ToolkitEditor_1-&gt;src_6</title>
    <path
       fill="none"
       stroke="#000000"
       d="m 164.66,-143.88 c 14.12,9.07 31.65,20.33 46.9,30.12"
       id="path62" />
    <polygon
       fill="#000000"
       stroke="#000000"
       points="220.23,-108.19 209.93,-110.65 213.71,-116.54 "
       id="polygon64" />
  </g>
</svg>
