<?xml version="1.0" encoding="UTF-8" standalone="no"?>
<!DOCTYPE svg PUBLIC "-//W3C//DTD SVG 1.1//EN"
 "http://www.w3.org/Graphics/SVG/1.1/DTD/svg11.dtd">
<!-- Generated by graphviz version 2.43.0 (0)
 -->
<!-- Title: G Pages: 1 -->
<svg width="183pt" height="260pt"
 viewBox="0.00 0.00 182.50 260.00" xmlns="http://www.w3.org/2000/svg" xmlns:xlink="http://www.w3.org/1999/xlink">
<g id="graph0" class="graph" transform="scale(1 1) rotate(0) translate(4 256)">
<title>G</title>
<!-- workflowmaker_x.y&#45;zz_amd64_1 -->
<g id="node1" class="node">
<title>workflowmaker_x.y&#45;zz_amd64_1</title>
<polygon fill="white" stroke="black" points="125.5,-252 0.5,-252 0.5,-216 125.5,-216 125.5,-252"/>
<text text-anchor="middle" x="63" y="-232.1" font-family="arial" font-size="8.00">workflowmaker_x.y&#45;zz_amd64</text>
</g>
<!-- DEBIAN_2 -->
<g id="node2" class="node">
<title>DEBIAN_2</title>
<polygon fill="white" stroke="black" points="54,-180 0,-180 0,-144 54,-144 54,-180"/>
<text text-anchor="middle" x="27" y="-160.1" font-family="arial" font-size="8.00">DEBIAN</text>
</g>
<!-- workflowmaker_x.y&#45;zz_amd64_1&#45;&gt;DEBIAN_2 -->
<g id="edge1" class="edge">
<title>workflowmaker_x.y&#45;zz_amd64_1&#45;&gt;DEBIAN_2</title>
<path fill="none" stroke="black" d="M54.1,-215.7C50,-207.73 45.05,-198.1 40.51,-189.26"/>
<polygon fill="black" stroke="black" points="43.48,-187.4 35.8,-180.1 37.26,-190.6 43.48,-187.4"/>
</g>
<!-- usr_3 -->
<g id="node3" class="node">
<title>usr_3</title>
<polygon fill="white" stroke="black" points="126,-180 72,-180 72,-144 126,-144 126,-180"/>
<text text-anchor="middle" x="99" y="-160.1" font-family="arial" font-size="8.00">usr</text>
</g>
<!-- workflowmaker_x.y&#45;zz_amd64_1&#45;&gt;usr_3 -->
<g id="edge2" class="edge">
<title>workflowmaker_x.y&#45;zz_amd64_1&#45;&gt;usr_3</title>
<path fill="none" stroke="black" d="M71.9,-215.7C76,-207.73 80.95,-198.1 85.49,-189.26"/>
<polygon fill="black" stroke="black" points="88.74,-190.6 90.2,-180.1 82.52,-187.4 88.74,-190.6"/>
</g>
<!-- local_4 -->
<g id="node4" class="node">
<title>local_4</title>
<polygon fill="white" stroke="black" points="89,-108 35,-108 35,-72 89,-72 89,-108"/>
<text text-anchor="middle" x="62" y="-88.1" font-family="arial" font-size="8.00">local</text>
</g>
<!-- usr_3&#45;&gt;local_4 -->
<g id="edge3" class="edge">
<title>usr_3&#45;&gt;local_4</title>
<path fill="none" stroke="black" d="M89.85,-143.7C85.6,-135.64 80.44,-125.89 75.73,-116.98"/>
<polygon fill="black" stroke="black" points="78.81,-115.31 71.04,-108.1 72.62,-118.58 78.81,-115.31"/>
</g>
<!-- share_6 -->
<g id="node6" class="node">
<title>share_6</title>
<polygon fill="white" stroke="black" points="163,-108 109,-108 109,-72 163,-72 163,-108"/>
<text text-anchor="middle" x="136" y="-88.1" font-family="arial" font-size="8.00">share</text>
</g>
<!-- usr_3&#45;&gt;share_6 -->
<g id="edge5" class="edge">
<title>usr_3&#45;&gt;share_6</title>
<path fill="none" stroke="black" d="M108.15,-143.7C112.4,-135.64 117.56,-125.89 122.27,-116.98"/>
<polygon fill="black" stroke="black" points="125.38,-118.58 126.96,-108.1 119.19,-115.31 125.38,-118.58"/>
</g>
<!-- bin_5 -->
<g id="node5" class="node">
<title>bin_5</title>
<polygon fill="white" stroke="black" points="85,-36 31,-36 31,0 85,0 85,-36"/>
<text text-anchor="middle" x="58" y="-16.1" font-family="arial" font-size="8.00">bin</text>
</g>
<!-- local_4&#45;&gt;bin_5 -->
<g id="edge4" class="edge">
<title>local_4&#45;&gt;bin_5</title>
<path fill="none" stroke="black" d="M61.01,-71.7C60.57,-63.98 60.04,-54.71 59.55,-46.11"/>
<polygon fill="black" stroke="black" points="63.04,-45.89 58.98,-36.1 56.05,-46.29 63.04,-45.89"/>
</g>
<!-- workflowmaker_7 -->
<g id="node7" class="node">
<title>workflowmaker_7</title>
<polygon fill="white" stroke="black" points="174.5,-36 103.5,-36 103.5,0 174.5,0 174.5,-36"/>
<text text-anchor="middle" x="139" y="-16.1" font-family="arial" font-size="8.00">workflowmaker</text>
</g>
<!-- share_6&#45;&gt;workflowmaker_7 -->
<g id="edge6" class="edge">
<title>share_6&#45;&gt;workflowmaker_7</title>
<path fill="none" stroke="black" d="M136.74,-71.7C137.07,-63.98 137.47,-54.71 137.84,-46.11"/>
<polygon fill="black" stroke="black" points="141.34,-46.25 138.27,-36.1 134.34,-45.95 141.34,-46.25"/>
</g>
</g>
</svg>
