<?xml version="1.0" encoding="UTF-8" standalone="no"?>
<!DOCTYPE svg PUBLIC "-//W3C//DTD SVG 1.1//EN"
 "http://www.w3.org/Graphics/SVG/1.1/DTD/svg11.dtd">
<!-- Generated by graphviz version 2.43.0 (0)
 -->
<!-- Title: G Pages: 1 -->
<svg width="218pt" height="188pt"
 viewBox="0.00 0.00 218.00 188.00" xmlns="http://www.w3.org/2000/svg" xmlns:xlink="http://www.w3.org/1999/xlink">
<g id="graph0" class="graph" transform="scale(1 1) rotate(0) translate(4 184)">
<title>G</title>
<!-- deployment_1 -->
<g id="node1" class="node">
<title>deployment_1</title>
<polygon fill="white" stroke="black" points="134,-180 76,-180 76,-144 134,-144 134,-180"/>
<text text-anchor="middle" x="105" y="-160.1" font-family="arial" font-size="8.00">deployment</text>
</g>
<!-- bin_2 -->
<g id="node2" class="node">
<title>bin_2</title>
<polygon fill="white" stroke="black" points="54,-108 0,-108 0,-72 54,-72 54,-108"/>
<text text-anchor="middle" x="27" y="-88.1" font-family="arial" font-size="8.00">bin</text>
</g>
<!-- deployment_1&#45;&gt;bin_2 -->
<g id="edge1" class="edge">
<title>deployment_1&#45;&gt;bin_2</title>
<path fill="none" stroke="black" d="M85.72,-143.7C76.08,-135.05 64.27,-124.45 53.77,-115.03"/>
<polygon fill="black" stroke="black" points="55.84,-112.18 46.06,-108.1 51.16,-117.39 55.84,-112.18"/>
</g>
<!-- data_samples_4 -->
<g id="node4" class="node">
<title>data_samples_4</title>
<polygon fill="white" stroke="black" points="138,-108 72,-108 72,-72 138,-72 138,-108"/>
<text text-anchor="middle" x="105" y="-88.1" font-family="arial" font-size="8.00">data_samples</text>
</g>
<!-- deployment_1&#45;&gt;data_samples_4 -->
<g id="edge3" class="edge">
<title>deployment_1&#45;&gt;data_samples_4</title>
<path fill="none" stroke="black" d="M105,-143.7C105,-135.98 105,-126.71 105,-118.11"/>
<polygon fill="black" stroke="black" points="108.5,-118.1 105,-108.1 101.5,-118.1 108.5,-118.1"/>
</g>
<!-- docs_5 -->
<g id="node5" class="node">
<title>docs_5</title>
<polygon fill="white" stroke="black" points="210,-108 156,-108 156,-72 210,-72 210,-108"/>
<text text-anchor="middle" x="183" y="-88.1" font-family="arial" font-size="8.00">docs</text>
</g>
<!-- deployment_1&#45;&gt;docs_5 -->
<g id="edge4" class="edge">
<title>deployment_1&#45;&gt;docs_5</title>
<path fill="none" stroke="black" d="M124.28,-143.7C133.92,-135.05 145.73,-124.45 156.23,-115.03"/>
<polygon fill="black" stroke="black" points="158.84,-117.39 163.94,-108.1 154.16,-112.18 158.84,-117.39"/>
</g>
<!-- x64_3 -->
<g id="node3" class="node">
<title>x64_3</title>
<polygon fill="white" stroke="black" points="54,-36 0,-36 0,0 54,0 54,-36"/>
<text text-anchor="middle" x="27" y="-16.1" font-family="arial" font-size="8.00">x64</text>
</g>
<!-- bin_2&#45;&gt;x64_3 -->
<g id="edge2" class="edge">
<title>bin_2&#45;&gt;x64_3</title>
<path fill="none" stroke="black" d="M27,-71.7C27,-63.98 27,-54.71 27,-46.11"/>
<polygon fill="black" stroke="black" points="30.5,-46.1 27,-36.1 23.5,-46.1 30.5,-46.1"/>
</g>
</g>
</svg>
