<?xml version="1.0" encoding="UTF-8" standalone="no"?>
<!DOCTYPE svg PUBLIC "-//W3C//DTD SVG 1.1//EN"
 "http://www.w3.org/Graphics/SVG/1.1/DTD/svg11.dtd">
<!-- Generated by graphviz version 2.43.0 (0)
 -->
<!-- Title: G Pages: 1 -->
<svg width="290pt" height="116pt"
 viewBox="0.00 0.00 290.00 116.00" xmlns="http://www.w3.org/2000/svg" xmlns:xlink="http://www.w3.org/1999/xlink">
<g id="graph0" class="graph" transform="scale(1 1) rotate(0) translate(4 112)">
<title>G</title>
<!-- deployment_1 -->
<g id="node1" class="node">
<title>deployment_1</title>
<polygon fill="white" stroke="black" points="167,-108 109,-108 109,-72 167,-72 167,-108"/>
<text text-anchor="middle" x="138" y="-88.1" font-family="arial" font-size="8.00">deployment</text>
</g>
<!-- bin_2 -->
<g id="node2" class="node">
<title>bin_2</title>
<polygon fill="white" stroke="black" points="54,-36 0,-36 0,0 54,0 54,-36"/>
<text text-anchor="middle" x="27" y="-16.1" font-family="arial" font-size="8.00">bin</text>
</g>
<!-- deployment_1&#45;&gt;bin_2 -->
<g id="edge1" class="edge">
<title>deployment_1&#45;&gt;bin_2</title>
<path fill="none" stroke="black" d="M110.85,-71.88C96.47,-62.81 78.62,-51.55 63.09,-41.76"/>
<polygon fill="black" stroke="black" points="64.58,-38.56 54.26,-36.19 60.85,-44.48 64.58,-38.56"/>
</g>
<!-- data_3 -->
<g id="node3" class="node">
<title>data_3</title>
<polygon fill="white" stroke="black" points="126,-36 72,-36 72,0 126,0 126,-36"/>
<text text-anchor="middle" x="99" y="-16.1" font-family="arial" font-size="8.00">data</text>
</g>
<!-- deployment_1&#45;&gt;data_3 -->
<g id="edge2" class="edge">
<title>deployment_1&#45;&gt;data_3</title>
<path fill="none" stroke="black" d="M128.36,-71.7C123.87,-63.64 118.44,-53.89 113.48,-44.98"/>
<polygon fill="black" stroke="black" points="116.45,-43.14 108.53,-36.1 110.34,-46.54 116.45,-43.14"/>
</g>
<!-- data_samples_4 -->
<g id="node4" class="node">
<title>data_samples_4</title>
<polygon fill="white" stroke="black" points="210,-36 144,-36 144,0 210,0 210,-36"/>
<text text-anchor="middle" x="177" y="-16.1" font-family="arial" font-size="8.00">data_samples</text>
</g>
<!-- deployment_1&#45;&gt;data_samples_4 -->
<g id="edge3" class="edge">
<title>deployment_1&#45;&gt;data_samples_4</title>
<path fill="none" stroke="black" d="M147.64,-71.7C152.13,-63.64 157.56,-53.89 162.52,-44.98"/>
<polygon fill="black" stroke="black" points="165.66,-46.54 167.47,-36.1 159.55,-43.14 165.66,-46.54"/>
</g>
<!-- docs_5 -->
<g id="node5" class="node">
<title>docs_5</title>
<polygon fill="white" stroke="black" points="282,-36 228,-36 228,0 282,0 282,-36"/>
<text text-anchor="middle" x="255" y="-16.1" font-family="arial" font-size="8.00">docs</text>
</g>
<!-- deployment_1&#45;&gt;docs_5 -->
<g id="edge4" class="edge">
<title>deployment_1&#45;&gt;docs_5</title>
<path fill="none" stroke="black" d="M166.62,-71.88C182.38,-62.45 202.08,-50.66 218.89,-40.61"/>
<polygon fill="black" stroke="black" points="221.1,-43.36 227.88,-35.23 217.5,-37.36 221.1,-43.36"/>
</g>
</g>
</svg>
