<?xml version="1.0" encoding="UTF-8" standalone="no"?>
<!DOCTYPE svg PUBLIC "-//W3C//DTD SVG 1.1//EN"
 "http://www.w3.org/Graphics/SVG/1.1/DTD/svg11.dtd">
<!-- Generated by graphviz version 12.1.1 (20240910.0053)
 -->
<!-- Title: G Pages: 1 -->
<svg width="545pt" height="260pt"
 viewBox="0.00 0.00 545.38 260.00" xmlns="http://www.w3.org/2000/svg" xmlns:xlink="http://www.w3.org/1999/xlink">
<g id="graph0" class="graph" transform="scale(1 1) rotate(0) translate(4 256)">
<title>G</title>
<!-- docs_1 -->
<g id="node1" class="node">
<title>docs_1</title>
<polygon fill="white" stroke="black" points="202,-252 148,-252 148,-216 202,-216 202,-252"/>
<text text-anchor="middle" x="175" y="-231.28" font-family="arial" font-size="8.00">docs</text>
</g>
<!-- base icons_2 -->
<g id="node2" class="node">
<title>base icons_2</title>
<polygon fill="white" stroke="black" points="94,-180 40,-180 40,-144 94,-144 94,-180"/>
<text text-anchor="middle" x="67" y="-159.28" font-family="arial" font-size="8.00">base icons</text>
</g>
<!-- docs_1&#45;&gt;base icons_2 -->
<g id="edge1" class="edge">
<title>docs_1&#45;&gt;base icons_2</title>
<path fill="none" stroke="black" d="M148.03,-215.52C134.39,-206.68 117.66,-195.84 102.95,-186.3"/>
<polygon fill="black" stroke="black" points="105.2,-183.59 94.9,-181.08 101.39,-189.46 105.2,-183.59"/>
</g>
<!-- licenses_5 -->
<g id="node5" class="node">
<title>licenses_5</title>
<polygon fill="white" stroke="black" points="166,-180 112,-180 112,-144 166,-144 166,-180"/>
<text text-anchor="middle" x="139" y="-159.28" font-family="arial" font-size="8.00">licenses</text>
</g>
<!-- docs_1&#45;&gt;licenses_5 -->
<g id="edge4" class="edge">
<title>docs_1&#45;&gt;licenses_5</title>
<path fill="none" stroke="black" d="M166.1,-215.7C162.13,-207.98 157.37,-198.71 152.94,-190.11"/>
<polygon fill="black" stroke="black" points="156.17,-188.74 148.49,-181.45 149.95,-191.94 156.17,-188.74"/>
</g>
<!-- template_6 -->
<g id="node6" class="node">
<title>template_6</title>
<polygon fill="white" stroke="black" points="238,-180 184,-180 184,-144 238,-144 238,-180"/>
<text text-anchor="middle" x="211" y="-159.28" font-family="arial" font-size="8.00">template</text>
</g>
<!-- docs_1&#45;&gt;template_6 -->
<g id="edge5" class="edge">
<title>docs_1&#45;&gt;template_6</title>
<path fill="none" stroke="black" d="M183.9,-215.7C187.87,-207.98 192.63,-198.71 197.06,-190.11"/>
<polygon fill="black" stroke="black" points="200.05,-191.94 201.51,-181.45 193.83,-188.74 200.05,-191.94"/>
</g>
<!-- user guide_7 -->
<g id="node7" class="node">
<title>user guide_7</title>
<polygon fill="white" stroke="black" points="310,-180 256,-180 256,-144 310,-144 310,-180"/>
<text text-anchor="middle" x="283" y="-159.28" font-family="arial" font-size="8.00">user guide</text>
</g>
<!-- docs_1&#45;&gt;user guide_7 -->
<g id="edge6" class="edge">
<title>docs_1&#45;&gt;user guide_7</title>
<path fill="none" stroke="black" d="M201.97,-215.52C215.61,-206.68 232.34,-195.84 247.05,-186.3"/>
<polygon fill="black" stroke="black" points="248.61,-189.46 255.1,-181.08 244.8,-183.59 248.61,-189.46"/>
</g>
<!-- freepik_3 -->
<g id="node3" class="node">
<title>freepik_3</title>
<polygon fill="white" stroke="black" points="54,-108 0,-108 0,-72 54,-72 54,-108"/>
<text text-anchor="middle" x="27" y="-87.28" font-family="arial" font-size="8.00">freepik</text>
</g>
<!-- base icons_2&#45;&gt;freepik_3 -->
<g id="edge2" class="edge">
<title>base icons_2&#45;&gt;freepik_3</title>
<path fill="none" stroke="black" d="M57.11,-143.7C52.66,-135.9 47.29,-126.51 42.33,-117.83"/>
<polygon fill="black" stroke="black" points="45.53,-116.36 37.52,-109.42 39.45,-119.84 45.53,-116.36"/>
</g>
<!-- workflowmaker_4 -->
<g id="node4" class="node">
<title>workflowmaker_4</title>
<polygon fill="white" stroke="black" points="142,-108 72,-108 72,-72 142,-72 142,-108"/>
<text text-anchor="middle" x="107" y="-87.28" font-family="arial" font-size="8.00">workflowmaker</text>
</g>
<!-- base icons_2&#45;&gt;workflowmaker_4 -->
<g id="edge3" class="edge">
<title>base icons_2&#45;&gt;workflowmaker_4</title>
<path fill="none" stroke="black" d="M76.89,-143.7C81.34,-135.9 86.71,-126.51 91.67,-117.83"/>
<polygon fill="black" stroke="black" points="94.55,-119.84 96.48,-109.42 88.47,-116.36 94.55,-119.84"/>
</g>
<!-- images_8 -->
<g id="node8" class="node">
<title>images_8</title>
<polygon fill="white" stroke="black" points="310,-108 256,-108 256,-72 310,-72 310,-108"/>
<text text-anchor="middle" x="283" y="-87.28" font-family="arial" font-size="8.00">images</text>
</g>
<!-- user guide_7&#45;&gt;images_8 -->
<g id="edge7" class="edge">
<title>user guide_7&#45;&gt;images_8</title>
<path fill="none" stroke="black" d="M283,-143.7C283,-136.41 283,-127.73 283,-119.54"/>
<polygon fill="black" stroke="black" points="286.5,-119.62 283,-109.62 279.5,-119.62 286.5,-119.62"/>
</g>
<!-- Building_9 -->
<g id="node9" class="node">
<title>Building_9</title>
<polygon fill="white" stroke="black" points="129,-36 75,-36 75,0 129,0 129,-36"/>
<text text-anchor="middle" x="102" y="-15.28" font-family="arial" font-size="8.00">Building</text>
</g>
<!-- images_8&#45;&gt;Building_9 -->
<g id="edge8" class="edge">
<title>images_8&#45;&gt;Building_9</title>
<path fill="none" stroke="black" d="M255.72,-79.86C228.49,-70.55 185.26,-55.31 140.01,-36.67"/>
<polygon fill="black" stroke="black" points="141.38,-33.45 130.8,-32.84 138.69,-39.91 141.38,-33.45"/>
</g>
<!-- Example_10 -->
<g id="node10" class="node">
<title>Example_10</title>
<polygon fill="white" stroke="black" points="201,-36 147,-36 147,0 201,0 201,-36"/>
<text text-anchor="middle" x="174" y="-15.28" font-family="arial" font-size="8.00">Example</text>
</g>
<!-- images_8&#45;&gt;Example_10 -->
<g id="edge9" class="edge">
<title>images_8&#45;&gt;Example_10</title>
<path fill="none" stroke="black" d="M255.78,-71.52C242.02,-62.68 225.13,-51.84 210.29,-42.3"/>
<polygon fill="black" stroke="black" points="212.46,-39.54 202.15,-37.08 208.67,-45.43 212.46,-39.54"/>
</g>
<!-- General_11 -->
<g id="node11" class="node">
<title>General_11</title>
<polygon fill="white" stroke="black" points="273,-36 219,-36 219,0 273,0 273,-36"/>
<text text-anchor="middle" x="246" y="-15.28" font-family="arial" font-size="8.00">General</text>
</g>
<!-- images_8&#45;&gt;General_11 -->
<g id="edge10" class="edge">
<title>images_8&#45;&gt;General_11</title>
<path fill="none" stroke="black" d="M273.85,-71.7C269.78,-63.98 264.88,-54.71 260.33,-46.11"/>
<polygon fill="black" stroke="black" points="263.52,-44.65 255.75,-37.44 257.33,-47.92 263.52,-44.65"/>
</g>
<!-- ToolkitEditor_12 -->
<g id="node12" class="node">
<title>ToolkitEditor_12</title>
<polygon fill="white" stroke="black" points="349.38,-36 290.62,-36 290.62,0 349.38,0 349.38,-36"/>
<text text-anchor="middle" x="320" y="-15.28" font-family="arial" font-size="8.00">ToolkitEditor</text>
</g>
<!-- images_8&#45;&gt;ToolkitEditor_12 -->
<g id="edge11" class="edge">
<title>images_8&#45;&gt;ToolkitEditor_12</title>
<path fill="none" stroke="black" d="M292.15,-71.7C296.22,-63.98 301.12,-54.71 305.67,-46.11"/>
<polygon fill="black" stroke="black" points="308.67,-47.92 310.25,-37.44 302.48,-44.65 308.67,-47.92"/>
</g>
<!-- WorkflowEditor_13 -->
<g id="node13" class="node">
<title>WorkflowEditor_13</title>
<polygon fill="white" stroke="black" points="437,-36 367,-36 367,0 437,0 437,-36"/>
<text text-anchor="middle" x="402" y="-15.28" font-family="arial" font-size="8.00">WorkflowEditor</text>
</g>
<!-- images_8&#45;&gt;WorkflowEditor_13 -->
<g id="edge12" class="edge">
<title>images_8&#45;&gt;WorkflowEditor_13</title>
<path fill="none" stroke="black" d="M310.3,-72.94C325.79,-63.83 345.44,-52.27 362.58,-42.19"/>
<polygon fill="black" stroke="black" points="364.18,-45.31 371.02,-37.22 360.63,-39.28 364.18,-45.31"/>
</g>
<!-- WorkflowLauncher_14 -->
<g id="node14" class="node">
<title>WorkflowLauncher_14</title>
<polygon fill="white" stroke="black" points="537.38,-36 454.62,-36 454.62,0 537.38,0 537.38,-36"/>
<text text-anchor="middle" x="496" y="-15.28" font-family="arial" font-size="8.00">WorkflowLauncher</text>
</g>
<!-- images_8&#45;&gt;WorkflowLauncher_14 -->
<g id="edge13" class="edge">
<title>images_8&#45;&gt;WorkflowLauncher_14</title>
<path fill="none" stroke="black" d="M310.44,-80.2C340.77,-70.45 391.36,-54.11 443.48,-36.82"/>
<polygon fill="black" stroke="black" points="444.45,-40.19 452.84,-33.71 442.24,-33.54 444.45,-40.19"/>
</g>
</g>
</svg>
