<?xml version="1.0" encoding="UTF-8" standalone="no"?>
<!-- Generated by graphviz version 2.43.0 (0)
 -->

<!-- Title: G Pages: 1 -->

<svg
   width="255pt"
   height="260pt"
   viewBox="0.00 0.00 254.50 260.00"
   version="1.1"
   id="svg110"
   sodipodi:docname="installer_extended.svg"
   inkscape:version="1.2.2 (b0a8486541, 2022-12-01)"
   xmlns:inkscape="http://www.inkscape.org/namespaces/inkscape"
   xmlns:sodipodi="http://sodipodi.sourceforge.net/DTD/sodipodi-0.dtd"
   xmlns="http://www.w3.org/2000/svg"
   xmlns:svg="http://www.w3.org/2000/svg">
  <defs
     id="defs114" />
  <sodipodi:namedview
     id="namedview112"
     pagecolor="#ffffff"
     bordercolor="#666666"
     borderopacity="1.0"
     inkscape:showpageshadow="2"
     inkscape:pageopacity="0.0"
     inkscape:pagecheckerboard="0"
     inkscape:deskcolor="#d1d1d1"
     inkscape:document-units="pt"
     showgrid="false"
     inkscape:zoom="2.4865385"
     inkscape:cx="170.31709"
     inkscape:cy="141.16009"
     inkscape:window-width="1920"
     inkscape:window-height="1008"
     inkscape:window-x="1680"
     inkscape:window-y="0"
     inkscape:window-maximized="1"
     inkscape:current-layer="svg110" />
  <g
     id="node1"
     class="node"
     transform="translate(4,256)">
    <title
       id="title4">workflowmaker_x.y-zz_amd64_1</title>
    <polygon
       fill="#ffffff"
       stroke="#000000"
       points="36.5,-216 161.5,-216 161.5,-252 36.5,-252 "
       id="polygon6" />
    <text
       text-anchor="middle"
       x="99"
       y="-232.10001"
       font-family="arial"
       font-size="8px"
       id="text8">workflowmaker_x.y-zz_amd64</text>
  </g>
  <g
     id="node2"
     class="node"
     transform="translate(4,256)">
    <title
       id="title11">DEBIAN_2</title>
    <polygon
       fill="#ffffff"
       stroke="#000000"
       points="0,-144 54,-144 54,-180 0,-180 "
       id="polygon13" />
    <text
       text-anchor="middle"
       x="27"
       y="-160.10001"
       font-family="arial"
       font-size="8px"
       id="text15">DEBIAN</text>
  </g>
  <g
     id="edge1"
     class="edge"
     transform="translate(4,256)">
    <title
       id="title18">workflowmaker_x.y-zz_amd64_1-&gt;DEBIAN_2</title>
    <path
       fill="none"
       stroke="#000000"
       d="m 81.2,-215.7 c -8.8,8.56 -19.58,19.04 -29.2,28.4"
       id="path20" />
    <polygon
       fill="#000000"
       stroke="#000000"
       points="49.32,-189.58 54.2,-184.57 44.59,-180.1 "
       id="polygon22" />
  </g>
  <polygon
     fill="#ffffff"
     stroke="#000000"
     points="126,-180 72,-180 72,-144 126,-144 "
     id="polygon27"
     transform="translate(4,256)"
     style="stroke:#ff0000;stroke-opacity:1" />
  <text
     text-anchor="middle"
     x="103"
     y="95.899994"
     font-family="arial"
     font-size="8px"
     id="text29"><tspan
       style="fill:#ff0000"
       id="tspan1116">debian</tspan></text>
  <path
     fill="none"
     stroke="#000000"
     d="m 103,40.3 c 0,7.72 0,16.99 0,25.59"
     id="path34"
     style="fill:#ff0000;stroke:#ff0000;stroke-opacity:1" />
  <polygon
     fill="#000000"
     stroke="#000000"
     points="99,-180.1 95.5,-190.1 102.5,-190.1 "
     id="polygon36"
     transform="translate(4,256)"
     style="fill:#ff0000;stroke:#ff0000;stroke-opacity:1" />
  <g
     id="node4"
     class="node"
     transform="translate(4,256)">
    <title
       id="title39">usr_4</title>
    <polygon
       fill="#ffffff"
       stroke="#000000"
       points="144,-144 198,-144 198,-180 144,-180 "
       id="polygon41" />
    <text
       text-anchor="middle"
       x="171"
       y="-160.10001"
       font-family="arial"
       font-size="8px"
       id="text43">usr</text>
  </g>
  <g
     id="edge3"
     class="edge"
     transform="translate(4,256)">
    <title
       id="title46">workflowmaker_x.y-zz_amd64_1-&gt;usr_4</title>
    <path
       fill="none"
       stroke="#000000"
       d="m 116.8,-215.7 c 8.8,8.56 19.58,19.04 29.2,28.4"
       id="path48" />
    <polygon
       fill="#000000"
       stroke="#000000"
       points="143.8,-184.57 148.68,-189.58 153.41,-180.1 "
       id="polygon50" />
  </g>
  <g
     id="node5"
     class="node"
     transform="translate(4,256)">
    <title
       id="title53">local_5</title>
    <polygon
       fill="#ffffff"
       stroke="#000000"
       points="107,-72 161,-72 161,-108 107,-108 "
       id="polygon55" />
    <text
       text-anchor="middle"
       x="134"
       y="-88.099998"
       font-family="arial"
       font-size="8px"
       id="text57">local</text>
  </g>
  <g
     id="edge4"
     class="edge"
     transform="translate(4,256)">
    <title
       id="title60">usr_4-&gt;local_5</title>
    <path
       fill="none"
       stroke="#000000"
       d="m 161.85,-143.7 c -4.25,8.06 -9.41,17.81 -14.12,26.72"
       id="path62" />
    <polygon
       fill="#000000"
       stroke="#000000"
       points="144.62,-118.58 150.81,-115.31 143.04,-108.1 "
       id="polygon64" />
  </g>
  <g
     id="node7"
     class="node"
     transform="translate(4,256)">
    <title
       id="title67">share_7</title>
    <polygon
       fill="#ffffff"
       stroke="#000000"
       points="181,-72 235,-72 235,-108 181,-108 "
       id="polygon69" />
    <text
       text-anchor="middle"
       x="208"
       y="-88.099998"
       font-family="arial"
       font-size="8px"
       id="text71">share</text>
  </g>
  <g
     id="edge6"
     class="edge"
     transform="translate(4,256)">
    <title
       id="title74">usr_4-&gt;share_7</title>
    <path
       fill="none"
       stroke="#000000"
       d="m 180.15,-143.7 c 4.25,8.06 9.41,17.81 14.12,26.72"
       id="path76" />
    <polygon
       fill="#000000"
       stroke="#000000"
       points="191.19,-115.31 197.38,-118.58 198.96,-108.1 "
       id="polygon78" />
  </g>
  <g
     id="node6"
     class="node"
     transform="translate(4,256)">
    <title
       id="title81">bin_6</title>
    <polygon
       fill="#ffffff"
       stroke="#000000"
       points="103,0 157,0 157,-36 103,-36 "
       id="polygon83" />
    <text
       text-anchor="middle"
       x="130"
       y="-16.1"
       font-family="arial"
       font-size="8px"
       id="text85">bin</text>
  </g>
  <g
     id="edge5"
     class="edge"
     transform="translate(4,256)">
    <title
       id="title88">local_5-&gt;bin_6</title>
    <path
       fill="none"
       stroke="#000000"
       d="m 133.01,-71.7 c -0.44,7.72 -0.97,16.99 -1.46,25.59"
       id="path90" />
    <polygon
       fill="#000000"
       stroke="#000000"
       points="128.05,-46.29 135.04,-45.89 130.98,-36.1 "
       id="polygon92" />
  </g>
  <g
     id="node8"
     class="node"
     transform="translate(4,256)">
    <title
       id="title95">workflowmaker_8</title>
    <polygon
       fill="#ffffff"
       stroke="#000000"
       points="175.5,0 246.5,0 246.5,-36 175.5,-36 "
       id="polygon97" />
    <text
       text-anchor="middle"
       x="211"
       y="-16.1"
       font-family="arial"
       font-size="8px"
       id="text99">workflowmaker</text>
  </g>
  <g
     id="edge7"
     class="edge"
     transform="translate(4,256)">
    <title
       id="title102">share_7-&gt;workflowmaker_8</title>
    <path
       fill="none"
       stroke="#000000"
       d="m 208.74,-71.7 c 0.33,7.72 0.73,16.99 1.1,25.59"
       id="path104" />
    <polygon
       fill="#000000"
       stroke="#000000"
       points="206.34,-45.95 213.34,-46.25 210.27,-36.1 "
       id="polygon106" />
  </g>
</svg>
