<?xml version="1.0" encoding="UTF-8" standalone="no"?>
<!DOCTYPE svg PUBLIC "-//W3C//DTD SVG 1.1//EN"
 "http://www.w3.org/Graphics/SVG/1.1/DTD/svg11.dtd">
<!-- Generated by graphviz version 2.43.0 (0)
 -->
<!-- Title: G Pages: 1 -->
<svg width="214pt" height="188pt"
 viewBox="0.00 0.00 214.00 188.00" xmlns="http://www.w3.org/2000/svg" xmlns:xlink="http://www.w3.org/1999/xlink">
<g id="graph0" class="graph" transform="scale(1 1) rotate(0) translate(4 184)">
<title>G</title>
<!-- installer_1 -->
<g id="node1" class="node">
<title>installer_1</title>
<polygon fill="white" stroke="black" points="118,-180 64,-180 64,-144 118,-144 118,-180"/>
<text text-anchor="middle" x="91" y="-160.1" font-family="arial" font-size="8.00">installer</text>
</g>
<!-- installer_sw_linux_2 -->
<g id="node2" class="node">
<title>installer_sw_linux_2</title>
<polygon fill="white" stroke="black" points="78,-108 0,-108 0,-72 78,-72 78,-108"/>
<text text-anchor="middle" x="39" y="-88.1" font-family="arial" font-size="8.00">installer_sw_linux</text>
</g>
<!-- installer_1&#45;&gt;installer_sw_linux_2 -->
<g id="edge1" class="edge">
<title>installer_1&#45;&gt;installer_sw_linux_2</title>
<path fill="none" stroke="black" d="M78.15,-143.7C71.97,-135.39 64.46,-125.28 57.68,-116.14"/>
<polygon fill="black" stroke="black" points="60.48,-114.04 51.71,-108.1 54.86,-118.22 60.48,-114.04"/>
</g>
<!-- installer_sw_windows_3 -->
<g id="node3" class="node">
<title>installer_sw_windows_3</title>
<polygon fill="white" stroke="black" points="189.5,-108 96.5,-108 96.5,-72 189.5,-72 189.5,-108"/>
<text text-anchor="middle" x="143" y="-88.1" font-family="arial" font-size="8.00">installer_sw_windows</text>
</g>
<!-- installer_1&#45;&gt;installer_sw_windows_3 -->
<g id="edge2" class="edge">
<title>installer_1&#45;&gt;installer_sw_windows_3</title>
<path fill="none" stroke="black" d="M103.85,-143.7C110.03,-135.39 117.54,-125.28 124.32,-116.14"/>
<polygon fill="black" stroke="black" points="127.14,-118.22 130.29,-108.1 121.52,-114.04 127.14,-118.22"/>
</g>
<!-- icons_4 -->
<g id="node4" class="node">
<title>icons_4</title>
<polygon fill="white" stroke="black" points="134,-36 80,-36 80,0 134,0 134,-36"/>
<text text-anchor="middle" x="107" y="-16.1" font-family="arial" font-size="8.00">icons</text>
</g>
<!-- installer_sw_windows_3&#45;&gt;icons_4 -->
<g id="edge3" class="edge">
<title>installer_sw_windows_3&#45;&gt;icons_4</title>
<path fill="none" stroke="black" d="M134.1,-71.7C130,-63.73 125.05,-54.1 120.51,-45.26"/>
<polygon fill="black" stroke="black" points="123.48,-43.4 115.8,-36.1 117.26,-46.6 123.48,-43.4"/>
</g>
<!-- images_5 -->
<g id="node5" class="node">
<title>images_5</title>
<polygon fill="white" stroke="black" points="206,-36 152,-36 152,0 206,0 206,-36"/>
<text text-anchor="middle" x="179" y="-16.1" font-family="arial" font-size="8.00">images</text>
</g>
<!-- installer_sw_windows_3&#45;&gt;images_5 -->
<g id="edge4" class="edge">
<title>installer_sw_windows_3&#45;&gt;images_5</title>
<path fill="none" stroke="black" d="M151.9,-71.7C156,-63.73 160.95,-54.1 165.49,-45.26"/>
<polygon fill="black" stroke="black" points="168.74,-46.6 170.2,-36.1 162.52,-43.4 168.74,-46.6"/>
</g>
</g>
</svg>
