<?xml version="1.0" encoding="UTF-8" standalone="no"?>
<!DOCTYPE svg PUBLIC "-//W3C//DTD SVG 1.1//EN"
 "http://www.w3.org/Graphics/SVG/1.1/DTD/svg11.dtd">
<!-- Generated by graphviz version 2.43.0 (0)
 -->
<!-- Title: G Pages: 1 -->
<svg width="196pt" height="188pt"
 viewBox="0.00 0.00 196.00 188.00" xmlns="http://www.w3.org/2000/svg" xmlns:xlink="http://www.w3.org/1999/xlink">
<g id="graph0" class="graph" transform="scale(1 1) rotate(0) translate(4 184)">
<title>G</title>
<!-- installer_1 -->
<g id="node1" class="node">
<title>installer_1</title>
<polygon fill="white" stroke="black" points="133,-180 79,-180 79,-144 133,-144 133,-180"/>
<text text-anchor="middle" x="106" y="-160.1" font-family="arial" font-size="8.00">installer</text>
</g>
<!-- installer_sw_2 -->
<g id="node2" class="node">
<title>installer_sw_2</title>
<polygon fill="white" stroke="black" points="92,-108 34,-108 34,-72 92,-72 92,-108"/>
<text text-anchor="middle" x="63" y="-88.1" font-family="arial" font-size="8.00">installer_sw</text>
</g>
<!-- installer_1&#45;&gt;installer_sw_2 -->
<g id="edge1" class="edge">
<title>installer_1&#45;&gt;installer_sw_2</title>
<path fill="none" stroke="black" d="M95.37,-143.7C90.37,-135.56 84.31,-125.69 78.79,-116.7"/>
<polygon fill="black" stroke="black" points="81.72,-114.79 73.51,-108.1 75.76,-118.46 81.72,-114.79"/>
</g>
<!-- installer_sw_linux_5 -->
<g id="node5" class="node">
<title>installer_sw_linux_5</title>
<polygon fill="white" stroke="black" points="188,-108 110,-108 110,-72 188,-72 188,-108"/>
<text text-anchor="middle" x="149" y="-88.1" font-family="arial" font-size="8.00">installer_sw_linux</text>
</g>
<!-- installer_1&#45;&gt;installer_sw_linux_5 -->
<g id="edge4" class="edge">
<title>installer_1&#45;&gt;installer_sw_linux_5</title>
<path fill="none" stroke="black" d="M116.63,-143.7C121.63,-135.56 127.69,-125.69 133.21,-116.7"/>
<polygon fill="black" stroke="black" points="136.24,-118.46 138.49,-108.1 130.28,-114.79 136.24,-118.46"/>
</g>
<!-- icons_3 -->
<g id="node3" class="node">
<title>icons_3</title>
<polygon fill="white" stroke="black" points="54,-36 0,-36 0,0 54,0 54,-36"/>
<text text-anchor="middle" x="27" y="-16.1" font-family="arial" font-size="8.00">icons</text>
</g>
<!-- installer_sw_2&#45;&gt;icons_3 -->
<g id="edge2" class="edge">
<title>installer_sw_2&#45;&gt;icons_3</title>
<path fill="none" stroke="black" d="M54.1,-71.7C50,-63.73 45.05,-54.1 40.51,-45.26"/>
<polygon fill="black" stroke="black" points="43.48,-43.4 35.8,-36.1 37.26,-46.6 43.48,-43.4"/>
</g>
<!-- images_4 -->
<g id="node4" class="node">
<title>images_4</title>
<polygon fill="white" stroke="black" points="126,-36 72,-36 72,0 126,0 126,-36"/>
<text text-anchor="middle" x="99" y="-16.1" font-family="arial" font-size="8.00">images</text>
</g>
<!-- installer_sw_2&#45;&gt;images_4 -->
<g id="edge3" class="edge">
<title>installer_sw_2&#45;&gt;images_4</title>
<path fill="none" stroke="black" d="M71.9,-71.7C76,-63.73 80.95,-54.1 85.49,-45.26"/>
<polygon fill="black" stroke="black" points="88.74,-46.6 90.2,-36.1 82.52,-43.4 88.74,-46.6"/>
</g>
</g>
</svg>
