<?xml version="1.0" encoding="UTF-8" standalone="no"?>
<!DOCTYPE svg PUBLIC "-//W3C//DTD SVG 1.1//EN"
 "http://www.w3.org/Graphics/SVG/1.1/DTD/svg11.dtd">
<!-- Generated by graphviz version 2.43.0 (0)
 -->
<!-- Title: G Pages: 1 -->
<svg width="236pt" height="188pt"
 viewBox="0.00 0.00 235.50 188.00" xmlns="http://www.w3.org/2000/svg" xmlns:xlink="http://www.w3.org/1999/xlink">
<g id="graph0" class="graph" transform="scale(1 1) rotate(0) translate(4 184)">
<title>G</title>
<!-- libraries_1 -->
<g id="node1" class="node">
<title>libraries_1</title>
<polygon fill="white" stroke="black" points="111.5,-180 57.5,-180 57.5,-144 111.5,-144 111.5,-180"/>
<text text-anchor="middle" x="84.5" y="-160.1" font-family="arial" font-size="8.00">libraries</text>
</g>
<!-- rapidxml_2 -->
<g id="node2" class="node">
<title>rapidxml_2</title>
<polygon fill="white" stroke="black" points="68.5,-108 14.5,-108 14.5,-72 68.5,-72 68.5,-108"/>
<text text-anchor="middle" x="41.5" y="-88.1" font-family="arial" font-size="8.00">rapidxml</text>
</g>
<!-- libraries_1&#45;&gt;rapidxml_2 -->
<g id="edge1" class="edge">
<title>libraries_1&#45;&gt;rapidxml_2</title>
<path fill="none" stroke="black" d="M73.87,-143.7C68.87,-135.56 62.81,-125.69 57.29,-116.7"/>
<polygon fill="black" stroke="black" points="60.22,-114.79 52.01,-108.1 54.26,-118.46 60.22,-114.79"/>
</g>
<!-- WorkflowMakerLib_3 -->
<g id="node3" class="node">
<title>WorkflowMakerLib_3</title>
<polygon fill="white" stroke="black" points="170,-108 87,-108 87,-72 170,-72 170,-108"/>
<text text-anchor="middle" x="128.5" y="-88.1" font-family="arial" font-size="8.00">WorkflowMakerLib</text>
</g>
<!-- libraries_1&#45;&gt;WorkflowMakerLib_3 -->
<g id="edge2" class="edge">
<title>libraries_1&#45;&gt;WorkflowMakerLib_3</title>
<path fill="none" stroke="black" d="M95.38,-143.7C100.49,-135.56 106.7,-125.69 112.34,-116.7"/>
<polygon fill="black" stroke="black" points="115.39,-118.43 117.75,-108.1 109.46,-114.71 115.39,-118.43"/>
</g>
<!-- data_to_bin_folder_4 -->
<g id="node4" class="node">
<title>data_to_bin_folder_4</title>
<polygon fill="white" stroke="black" points="83,-36 0,-36 0,0 83,0 83,-36"/>
<text text-anchor="middle" x="41.5" y="-16.1" font-family="arial" font-size="8.00">data_to_bin_folder</text>
</g>
<!-- WorkflowMakerLib_3&#45;&gt;data_to_bin_folder_4 -->
<g id="edge3" class="edge">
<title>WorkflowMakerLib_3&#45;&gt;data_to_bin_folder_4</title>
<path fill="none" stroke="black" d="M106.99,-71.7C96.04,-62.88 82.55,-52.03 70.68,-42.47"/>
<polygon fill="black" stroke="black" points="72.74,-39.65 62.76,-36.1 68.36,-45.1 72.74,-39.65"/>
</g>
<!-- resources_5 -->
<g id="node5" class="node">
<title>resources_5</title>
<polygon fill="white" stroke="black" points="155.5,-36 101.5,-36 101.5,0 155.5,0 155.5,-36"/>
<text text-anchor="middle" x="128.5" y="-16.1" font-family="arial" font-size="8.00">resources</text>
</g>
<!-- WorkflowMakerLib_3&#45;&gt;resources_5 -->
<g id="edge4" class="edge">
<title>WorkflowMakerLib_3&#45;&gt;resources_5</title>
<path fill="none" stroke="black" d="M128.5,-71.7C128.5,-63.98 128.5,-54.71 128.5,-46.11"/>
<polygon fill="black" stroke="black" points="132,-46.1 128.5,-36.1 125,-46.1 132,-46.1"/>
</g>
<!-- src_6 -->
<g id="node6" class="node">
<title>src_6</title>
<polygon fill="white" stroke="black" points="227.5,-36 173.5,-36 173.5,0 227.5,0 227.5,-36"/>
<text text-anchor="middle" x="200.5" y="-16.1" font-family="arial" font-size="8.00">src</text>
</g>
<!-- WorkflowMakerLib_3&#45;&gt;src_6 -->
<g id="edge5" class="edge">
<title>WorkflowMakerLib_3&#45;&gt;src_6</title>
<path fill="none" stroke="black" d="M146.3,-71.7C155.1,-63.14 165.88,-52.66 175.5,-43.3"/>
<polygon fill="black" stroke="black" points="178.18,-45.58 182.91,-36.1 173.3,-40.57 178.18,-45.58"/>
</g>
</g>
</svg>
