<?xml version="1.0" encoding="UTF-8" standalone="no"?>
<!DOCTYPE svg PUBLIC "-//W3C//DTD SVG 1.1//EN"
 "http://www.w3.org/Graphics/SVG/1.1/DTD/svg11.dtd">
<!-- Generated by graphviz version 2.43.0 (0)
 -->
<!-- Title: G Pages: 1 -->
<svg width="236pt" height="188pt"
 viewBox="0.00 0.00 235.50 188.00" xmlns="http://www.w3.org/2000/svg" xmlns:xlink="http://www.w3.org/1999/xlink">
<g id="graph0" class="graph" transform="scale(1 1) rotate(0) translate(4 184)">
<title>G</title>
<!-- libraries_1 -->
<g id="node1" class="node">
<title>libraries_1</title>
<polygon fill="white" stroke="black" points="155.5,-180 101.5,-180 101.5,-144 155.5,-144 155.5,-180"/>
<text text-anchor="middle" x="128.5" y="-160.1" font-family="arial" font-size="8.00">libraries</text>
</g>
<!-- WorkflowMakerLib_2 -->
<g id="node2" class="node">
<title>WorkflowMakerLib_2</title>
<polygon fill="white" stroke="black" points="170,-108 87,-108 87,-72 170,-72 170,-108"/>
<text text-anchor="middle" x="128.5" y="-88.1" font-family="arial" font-size="8.00">WorkflowMakerLib</text>
</g>
<!-- libraries_1&#45;&gt;WorkflowMakerLib_2 -->
<g id="edge1" class="edge">
<title>libraries_1&#45;&gt;WorkflowMakerLib_2</title>
<path fill="none" stroke="black" d="M128.5,-143.7C128.5,-135.98 128.5,-126.71 128.5,-118.11"/>
<polygon fill="black" stroke="black" points="132,-118.1 128.5,-108.1 125,-118.1 132,-118.1"/>
</g>
<!-- data_to_bin_folder_3 -->
<g id="node3" class="node">
<title>data_to_bin_folder_3</title>
<polygon fill="white" stroke="black" points="83,-36 0,-36 0,0 83,0 83,-36"/>
<text text-anchor="middle" x="41.5" y="-16.1" font-family="arial" font-size="8.00">data_to_bin_folder</text>
</g>
<!-- WorkflowMakerLib_2&#45;&gt;data_to_bin_folder_3 -->
<g id="edge2" class="edge">
<title>WorkflowMakerLib_2&#45;&gt;data_to_bin_folder_3</title>
<path fill="none" stroke="black" d="M106.99,-71.7C96.04,-62.88 82.55,-52.03 70.68,-42.47"/>
<polygon fill="black" stroke="black" points="72.74,-39.65 62.76,-36.1 68.36,-45.1 72.74,-39.65"/>
</g>
<!-- resources_4 -->
<g id="node4" class="node">
<title>resources_4</title>
<polygon fill="white" stroke="black" points="155.5,-36 101.5,-36 101.5,0 155.5,0 155.5,-36"/>
<text text-anchor="middle" x="128.5" y="-16.1" font-family="arial" font-size="8.00">resources</text>
</g>
<!-- WorkflowMakerLib_2&#45;&gt;resources_4 -->
<g id="edge3" class="edge">
<title>WorkflowMakerLib_2&#45;&gt;resources_4</title>
<path fill="none" stroke="black" d="M128.5,-71.7C128.5,-63.98 128.5,-54.71 128.5,-46.11"/>
<polygon fill="black" stroke="black" points="132,-46.1 128.5,-36.1 125,-46.1 132,-46.1"/>
</g>
<!-- src_5 -->
<g id="node5" class="node">
<title>src_5</title>
<polygon fill="white" stroke="black" points="227.5,-36 173.5,-36 173.5,0 227.5,0 227.5,-36"/>
<text text-anchor="middle" x="200.5" y="-16.1" font-family="arial" font-size="8.00">src</text>
</g>
<!-- WorkflowMakerLib_2&#45;&gt;src_5 -->
<g id="edge4" class="edge">
<title>WorkflowMakerLib_2&#45;&gt;src_5</title>
<path fill="none" stroke="black" d="M146.3,-71.7C155.1,-63.14 165.88,-52.66 175.5,-43.3"/>
<polygon fill="black" stroke="black" points="178.18,-45.58 182.91,-36.1 173.3,-40.57 178.18,-45.58"/>
</g>
</g>
</svg>
