<?xml version="1.0" encoding="UTF-8" standalone="no"?>
<!DOCTYPE svg PUBLIC "-//W3C//DTD SVG 1.1//EN"
 "http://www.w3.org/Graphics/SVG/1.1/DTD/svg11.dtd">
<!-- Generated by graphviz version 2.43.0 (0)
 -->
<!-- Title: G Pages: 1 -->
<svg width="94pt" height="188pt"
 viewBox="0.00 0.00 94.00 188.00" xmlns="http://www.w3.org/2000/svg" xmlns:xlink="http://www.w3.org/1999/xlink">
<g id="graph0" class="graph" transform="scale(1 1) rotate(0) translate(4 184)">
<title>G</title>
<!-- QT_redistributables_1 -->
<g id="node1" class="node">
<title>QT_redistributables_1</title>
<polygon fill="white" stroke="black" points="86,-180 0,-180 0,-144 86,-144 86,-180"/>
<text text-anchor="middle" x="43" y="-160.1" font-family="arial" font-size="8.00">QT_redistributables</text>
</g>
<!-- x64_2 -->
<g id="node2" class="node">
<title>x64_2</title>
<polygon fill="white" stroke="black" points="70,-108 16,-108 16,-72 70,-72 70,-108"/>
<text text-anchor="middle" x="43" y="-88.1" font-family="arial" font-size="8.00">x64</text>
</g>
<!-- QT_redistributables_1&#45;&gt;x64_2 -->
<g id="edge1" class="edge">
<title>QT_redistributables_1&#45;&gt;x64_2</title>
<path fill="none" stroke="black" d="M43,-143.7C43,-135.98 43,-126.71 43,-118.11"/>
<polygon fill="black" stroke="black" points="46.5,-118.1 43,-108.1 39.5,-118.1 46.5,-118.1"/>
</g>
<!-- platforms_3 -->
<g id="node3" class="node">
<title>platforms_3</title>
<polygon fill="white" stroke="black" points="70,-36 16,-36 16,0 70,0 70,-36"/>
<text text-anchor="middle" x="43" y="-16.1" font-family="arial" font-size="8.00">platforms</text>
</g>
<!-- x64_2&#45;&gt;platforms_3 -->
<g id="edge2" class="edge">
<title>x64_2&#45;&gt;platforms_3</title>
<path fill="none" stroke="black" d="M43,-71.7C43,-63.98 43,-54.71 43,-46.11"/>
<polygon fill="black" stroke="black" points="46.5,-46.1 43,-36.1 39.5,-46.1 46.5,-46.1"/>
</g>
</g>
</svg>
