<?xml version="1.0" encoding="UTF-8" standalone="no"?>
<!DOCTYPE svg PUBLIC "-//W3C//DTD SVG 1.1//EN"
 "http://www.w3.org/Graphics/SVG/1.1/DTD/svg11.dtd">
<!-- Generated by graphviz version 2.43.0 (0)
 -->
<!-- Title: G Pages: 1 -->
<svg width="1114pt" height="188pt"
 viewBox="0.00 0.00 1114.00 188.00" xmlns="http://www.w3.org/2000/svg" xmlns:xlink="http://www.w3.org/1999/xlink">
<g id="graph0" class="graph" transform="scale(1 1) rotate(0) translate(4 184)">
<title>G</title>
<!-- samples_1 -->
<g id="node1" class="node">
<title>samples_1</title>
<polygon fill="white" stroke="black" points="621,-180 567,-180 567,-144 621,-144 621,-180"/>
<text text-anchor="middle" x="594" y="-160.1" font-family="arial" font-size="8.00">samples</text>
</g>
<!-- image_processing_2 -->
<g id="node2" class="node">
<title>image_processing_2</title>
<polygon fill="white" stroke="black" points="308.5,-108 227.5,-108 227.5,-72 308.5,-72 308.5,-108"/>
<text text-anchor="middle" x="268" y="-88.1" font-family="arial" font-size="8.00">image_processing</text>
</g>
<!-- samples_1&#45;&gt;image_processing_2 -->
<g id="edge1" class="edge">
<title>samples_1&#45;&gt;image_processing_2</title>
<path fill="none" stroke="black" d="M566.77,-155.15C512.14,-143.42 388.47,-116.87 318.58,-101.86"/>
<polygon fill="black" stroke="black" points="319.18,-98.41 308.67,-99.73 317.71,-105.25 319.18,-98.41"/>
</g>
<!-- libraries_9 -->
<g id="node9" class="node">
<title>libraries_9</title>
<polygon fill="white" stroke="black" points="621,-108 567,-108 567,-72 621,-72 621,-108"/>
<text text-anchor="middle" x="594" y="-88.1" font-family="arial" font-size="8.00">libraries</text>
</g>
<!-- samples_1&#45;&gt;libraries_9 -->
<g id="edge8" class="edge">
<title>samples_1&#45;&gt;libraries_9</title>
<path fill="none" stroke="black" d="M594,-143.7C594,-135.98 594,-126.71 594,-118.11"/>
<polygon fill="black" stroke="black" points="597.5,-118.1 594,-108.1 590.5,-118.1 597.5,-118.1"/>
</g>
<!-- text_file_processing_11 -->
<g id="node11" class="node">
<title>text_file_processing_11</title>
<polygon fill="white" stroke="black" points="853,-108 767,-108 767,-72 853,-72 853,-108"/>
<text text-anchor="middle" x="810" y="-88.1" font-family="arial" font-size="8.00">text_file_processing</text>
</g>
<!-- samples_1&#45;&gt;text_file_processing_11 -->
<g id="edge10" class="edge">
<title>samples_1&#45;&gt;text_file_processing_11</title>
<path fill="none" stroke="black" d="M621.36,-152.13C655.37,-141.11 714.19,-122.05 757.13,-108.14"/>
<polygon fill="black" stroke="black" points="758.42,-111.4 766.85,-104.98 756.26,-104.74 758.42,-111.4"/>
</g>
<!-- docs_3 -->
<g id="node3" class="node">
<title>docs_3</title>
<polygon fill="white" stroke="black" points="54,-36 0,-36 0,0 54,0 54,-36"/>
<text text-anchor="middle" x="27" y="-16.1" font-family="arial" font-size="8.00">docs</text>
</g>
<!-- image_processing_2&#45;&gt;docs_3 -->
<g id="edge2" class="edge">
<title>image_processing_2&#45;&gt;docs_3</title>
<path fill="none" stroke="black" d="M227.25,-80.84C187.43,-72.34 125.11,-57.66 63.73,-35.94"/>
<polygon fill="black" stroke="black" points="64.89,-32.63 54.29,-32.54 62.51,-39.22 64.89,-32.63"/>
</g>
<!-- installer_4 -->
<g id="node4" class="node">
<title>installer_4</title>
<polygon fill="white" stroke="black" points="126,-36 72,-36 72,0 126,0 126,-36"/>
<text text-anchor="middle" x="99" y="-16.1" font-family="arial" font-size="8.00">installer</text>
</g>
<!-- image_processing_2&#45;&gt;installer_4 -->
<g id="edge3" class="edge">
<title>image_processing_2&#45;&gt;installer_4</title>
<path fill="none" stroke="black" d="M227.28,-73.53C202.88,-64.09 171.1,-51.49 135.25,-35.99"/>
<polygon fill="black" stroke="black" points="136.61,-32.77 126.04,-31.99 133.82,-39.19 136.61,-32.77"/>
</g>
<!-- installer_linux_5 -->
<g id="node5" class="node">
<title>installer_linux_5</title>
<polygon fill="white" stroke="black" points="208,-36 144,-36 144,0 208,0 208,-36"/>
<text text-anchor="middle" x="176" y="-16.1" font-family="arial" font-size="8.00">installer_linux</text>
</g>
<!-- image_processing_2&#45;&gt;installer_linux_5 -->
<g id="edge4" class="edge">
<title>image_processing_2&#45;&gt;installer_linux_5</title>
<path fill="none" stroke="black" d="M245.26,-71.7C233.56,-62.8 219.14,-51.82 206.49,-42.2"/>
<polygon fill="black" stroke="black" points="208.56,-39.37 198.48,-36.1 204.32,-44.94 208.56,-39.37"/>
</g>
<!-- sample_input_data_6 -->
<g id="node6" class="node">
<title>sample_input_data_6</title>
<polygon fill="white" stroke="black" points="310,-36 226,-36 226,0 310,0 310,-36"/>
<text text-anchor="middle" x="268" y="-16.1" font-family="arial" font-size="8.00">sample_input_data</text>
</g>
<!-- image_processing_2&#45;&gt;sample_input_data_6 -->
<g id="edge5" class="edge">
<title>image_processing_2&#45;&gt;sample_input_data_6</title>
<path fill="none" stroke="black" d="M268,-71.7C268,-63.98 268,-54.71 268,-46.11"/>
<polygon fill="black" stroke="black" points="271.5,-46.1 268,-36.1 264.5,-46.1 271.5,-46.1"/>
</g>
<!-- sample_workflowmaker_files_7 -->
<g id="node7" class="node">
<title>sample_workflowmaker_files_7</title>
<polygon fill="white" stroke="black" points="447.5,-36 328.5,-36 328.5,0 447.5,0 447.5,-36"/>
<text text-anchor="middle" x="388" y="-16.1" font-family="arial" font-size="8.00">sample_workflowmaker_files</text>
</g>
<!-- image_processing_2&#45;&gt;sample_workflowmaker_files_7 -->
<g id="edge6" class="edge">
<title>image_processing_2&#45;&gt;sample_workflowmaker_files_7</title>
<path fill="none" stroke="black" d="M297.36,-71.88C313.05,-62.72 332.56,-51.34 349.45,-41.48"/>
<polygon fill="black" stroke="black" points="351.66,-44.25 358.53,-36.19 348.13,-38.21 351.66,-44.25"/>
</g>
<!-- tasks_8 -->
<g id="node8" class="node">
<title>tasks_8</title>
<polygon fill="white" stroke="black" points="520,-36 466,-36 466,0 520,0 520,-36"/>
<text text-anchor="middle" x="493" y="-16.1" font-family="arial" font-size="8.00">tasks</text>
</g>
<!-- image_processing_2&#45;&gt;tasks_8 -->
<g id="edge7" class="edge">
<title>image_processing_2&#45;&gt;tasks_8</title>
<path fill="none" stroke="black" d="M308.55,-79.51C347.03,-70.06 406.2,-54.33 456,-36 456.1,-35.96 456.2,-35.93 456.3,-35.89"/>
<polygon fill="black" stroke="black" points="457.74,-39.08 465.72,-32.11 455.14,-32.58 457.74,-39.08"/>
</g>
<!-- simple_options_file_parser_10 -->
<g id="node10" class="node">
<title>simple_options_file_parser_10</title>
<polygon fill="white" stroke="black" points="649.5,-36 538.5,-36 538.5,0 649.5,0 649.5,-36"/>
<text text-anchor="middle" x="594" y="-16.1" font-family="arial" font-size="8.00">simple_options_file_parser</text>
</g>
<!-- libraries_9&#45;&gt;simple_options_file_parser_10 -->
<g id="edge9" class="edge">
<title>libraries_9&#45;&gt;simple_options_file_parser_10</title>
<path fill="none" stroke="black" d="M594,-71.7C594,-63.98 594,-54.71 594,-46.11"/>
<polygon fill="black" stroke="black" points="597.5,-46.1 594,-36.1 590.5,-46.1 597.5,-46.1"/>
</g>
<!-- docs_12 -->
<g id="node12" class="node">
<title>docs_12</title>
<polygon fill="white" stroke="black" points="722,-36 668,-36 668,0 722,0 722,-36"/>
<text text-anchor="middle" x="695" y="-16.1" font-family="arial" font-size="8.00">docs</text>
</g>
<!-- text_file_processing_11&#45;&gt;docs_12 -->
<g id="edge11" class="edge">
<title>text_file_processing_11&#45;&gt;docs_12</title>
<path fill="none" stroke="black" d="M781.87,-71.88C766.49,-62.52 747.29,-50.83 730.86,-40.83"/>
<polygon fill="black" stroke="black" points="732.41,-37.67 722.05,-35.47 728.77,-43.65 732.41,-37.67"/>
</g>
<!-- installer_13 -->
<g id="node13" class="node">
<title>installer_13</title>
<polygon fill="white" stroke="black" points="794,-36 740,-36 740,0 794,0 794,-36"/>
<text text-anchor="middle" x="767" y="-16.1" font-family="arial" font-size="8.00">installer</text>
</g>
<!-- text_file_processing_11&#45;&gt;installer_13 -->
<g id="edge12" class="edge">
<title>text_file_processing_11&#45;&gt;installer_13</title>
<path fill="none" stroke="black" d="M799.37,-71.7C794.37,-63.56 788.31,-53.69 782.79,-44.7"/>
<polygon fill="black" stroke="black" points="785.72,-42.79 777.51,-36.1 779.76,-46.46 785.72,-42.79"/>
</g>
<!-- sample_input_data_14 -->
<g id="node14" class="node">
<title>sample_input_data_14</title>
<polygon fill="white" stroke="black" points="896,-36 812,-36 812,0 896,0 896,-36"/>
<text text-anchor="middle" x="854" y="-16.1" font-family="arial" font-size="8.00">sample_input_data</text>
</g>
<!-- text_file_processing_11&#45;&gt;sample_input_data_14 -->
<g id="edge13" class="edge">
<title>text_file_processing_11&#45;&gt;sample_input_data_14</title>
<path fill="none" stroke="black" d="M820.88,-71.7C825.99,-63.56 832.2,-53.69 837.84,-44.7"/>
<polygon fill="black" stroke="black" points="840.89,-46.43 843.25,-36.1 834.96,-42.71 840.89,-46.43"/>
</g>
<!-- sample_workflowmaker_files_15 -->
<g id="node15" class="node">
<title>sample_workflowmaker_files_15</title>
<polygon fill="white" stroke="black" points="1033.5,-36 914.5,-36 914.5,0 1033.5,0 1033.5,-36"/>
<text text-anchor="middle" x="974" y="-16.1" font-family="arial" font-size="8.00">sample_workflowmaker_files</text>
</g>
<!-- text_file_processing_11&#45;&gt;sample_workflowmaker_files_15 -->
<g id="edge14" class="edge">
<title>text_file_processing_11&#45;&gt;sample_workflowmaker_files_15</title>
<path fill="none" stroke="black" d="M850.12,-71.88C872.64,-62.26 900.92,-50.19 924.77,-40.01"/>
<polygon fill="black" stroke="black" points="926.19,-43.21 934.01,-36.07 923.44,-36.77 926.19,-43.21"/>
</g>
<!-- tasks_16 -->
<g id="node16" class="node">
<title>tasks_16</title>
<polygon fill="white" stroke="black" points="1106,-36 1052,-36 1052,0 1106,0 1106,-36"/>
<text text-anchor="middle" x="1079" y="-16.1" font-family="arial" font-size="8.00">tasks</text>
</g>
<!-- text_file_processing_11&#45;&gt;tasks_16 -->
<g id="edge15" class="edge">
<title>text_file_processing_11&#45;&gt;tasks_16</title>
<path fill="none" stroke="black" d="M853.3,-82.06C898.64,-74.16 971.86,-59.59 1042.27,-35.87"/>
<polygon fill="black" stroke="black" points="1043.42,-39.18 1051.74,-32.62 1041.14,-32.56 1043.42,-39.18"/>
</g>
</g>
</svg>
