<?xml version="1.0" encoding="UTF-8" standalone="no"?>
<!DOCTYPE svg PUBLIC "-//W3C//DTD SVG 1.1//EN"
 "http://www.w3.org/Graphics/SVG/1.1/DTD/svg11.dtd">
<!-- Generated by graphviz version 2.43.0 (0)
 -->
<!-- Title: G Pages: 1 -->
<svg width="658pt" height="188pt"
 viewBox="0.00 0.00 657.50 188.00" xmlns="http://www.w3.org/2000/svg" xmlns:xlink="http://www.w3.org/1999/xlink">
<g id="graph0" class="graph" transform="scale(1 1) rotate(0) translate(4 184)">
<title>G</title>
<!-- samples_1 -->
<g id="node1" class="node">
<title>samples_1</title>
<polygon fill="white" stroke="black" points="338,-180 284,-180 284,-144 338,-144 338,-180"/>
<text text-anchor="middle" x="311" y="-160.1" font-family="arial" font-size="8.00">samples</text>
</g>
<!-- image_processing_2 -->
<g id="node2" class="node">
<title>image_processing_2</title>
<polygon fill="white" stroke="black" points="308.5,-108 227.5,-108 227.5,-72 308.5,-72 308.5,-108"/>
<text text-anchor="middle" x="268" y="-88.1" font-family="arial" font-size="8.00">image_processing</text>
</g>
<!-- samples_1&#45;&gt;image_processing_2 -->
<g id="edge1" class="edge">
<title>samples_1&#45;&gt;image_processing_2</title>
<path fill="none" stroke="black" d="M300.37,-143.7C295.37,-135.56 289.31,-125.69 283.79,-116.7"/>
<polygon fill="black" stroke="black" points="286.72,-114.79 278.51,-108.1 280.76,-118.46 286.72,-114.79"/>
</g>
<!-- libraries_9 -->
<g id="node9" class="node">
<title>libraries_9</title>
<polygon fill="white" stroke="black" points="501,-108 447,-108 447,-72 501,-72 501,-108"/>
<text text-anchor="middle" x="474" y="-88.1" font-family="arial" font-size="8.00">libraries</text>
</g>
<!-- samples_1&#45;&gt;libraries_9 -->
<g id="edge8" class="edge">
<title>samples_1&#45;&gt;libraries_9</title>
<path fill="none" stroke="black" d="M338.28,-149.28C365.51,-137.59 407.53,-119.55 437.59,-106.64"/>
<polygon fill="black" stroke="black" points="439.09,-109.8 446.9,-102.64 436.33,-103.37 439.09,-109.8"/>
</g>
<!-- docs_3 -->
<g id="node3" class="node">
<title>docs_3</title>
<polygon fill="white" stroke="black" points="54,-36 0,-36 0,0 54,0 54,-36"/>
<text text-anchor="middle" x="27" y="-16.1" font-family="arial" font-size="8.00">docs</text>
</g>
<!-- image_processing_2&#45;&gt;docs_3 -->
<g id="edge2" class="edge">
<title>image_processing_2&#45;&gt;docs_3</title>
<path fill="none" stroke="black" d="M227.25,-80.84C187.43,-72.34 125.11,-57.66 63.73,-35.94"/>
<polygon fill="black" stroke="black" points="64.89,-32.63 54.29,-32.54 62.51,-39.22 64.89,-32.63"/>
</g>
<!-- installer_4 -->
<g id="node4" class="node">
<title>installer_4</title>
<polygon fill="white" stroke="black" points="126,-36 72,-36 72,0 126,0 126,-36"/>
<text text-anchor="middle" x="99" y="-16.1" font-family="arial" font-size="8.00">installer</text>
</g>
<!-- image_processing_2&#45;&gt;installer_4 -->
<g id="edge3" class="edge">
<title>image_processing_2&#45;&gt;installer_4</title>
<path fill="none" stroke="black" d="M227.28,-73.53C202.88,-64.09 171.1,-51.49 135.25,-35.99"/>
<polygon fill="black" stroke="black" points="136.61,-32.77 126.04,-31.99 133.82,-39.19 136.61,-32.77"/>
</g>
<!-- installer_linux_5 -->
<g id="node5" class="node">
<title>installer_linux_5</title>
<polygon fill="white" stroke="black" points="208,-36 144,-36 144,0 208,0 208,-36"/>
<text text-anchor="middle" x="176" y="-16.1" font-family="arial" font-size="8.00">installer_linux</text>
</g>
<!-- image_processing_2&#45;&gt;installer_linux_5 -->
<g id="edge4" class="edge">
<title>image_processing_2&#45;&gt;installer_linux_5</title>
<path fill="none" stroke="black" d="M245.26,-71.7C233.56,-62.8 219.14,-51.82 206.49,-42.2"/>
<polygon fill="black" stroke="black" points="208.56,-39.37 198.48,-36.1 204.32,-44.94 208.56,-39.37"/>
</g>
<!-- sample_input_data_6 -->
<g id="node6" class="node">
<title>sample_input_data_6</title>
<polygon fill="white" stroke="black" points="310,-36 226,-36 226,0 310,0 310,-36"/>
<text text-anchor="middle" x="268" y="-16.1" font-family="arial" font-size="8.00">sample_input_data</text>
</g>
<!-- image_processing_2&#45;&gt;sample_input_data_6 -->
<g id="edge5" class="edge">
<title>image_processing_2&#45;&gt;sample_input_data_6</title>
<path fill="none" stroke="black" d="M268,-71.7C268,-63.98 268,-54.71 268,-46.11"/>
<polygon fill="black" stroke="black" points="271.5,-46.1 268,-36.1 264.5,-46.1 271.5,-46.1"/>
</g>
<!-- sample_workflowmaker_files_7 -->
<g id="node7" class="node">
<title>sample_workflowmaker_files_7</title>
<polygon fill="white" stroke="black" points="447.5,-36 328.5,-36 328.5,0 447.5,0 447.5,-36"/>
<text text-anchor="middle" x="388" y="-16.1" font-family="arial" font-size="8.00">sample_workflowmaker_files</text>
</g>
<!-- image_processing_2&#45;&gt;sample_workflowmaker_files_7 -->
<g id="edge6" class="edge">
<title>image_processing_2&#45;&gt;sample_workflowmaker_files_7</title>
<path fill="none" stroke="black" d="M297.36,-71.88C313.05,-62.72 332.56,-51.34 349.45,-41.48"/>
<polygon fill="black" stroke="black" points="351.66,-44.25 358.53,-36.19 348.13,-38.21 351.66,-44.25"/>
</g>
<!-- tasks_8 -->
<g id="node8" class="node">
<title>tasks_8</title>
<polygon fill="white" stroke="black" points="520,-36 466,-36 466,0 520,0 520,-36"/>
<text text-anchor="middle" x="493" y="-16.1" font-family="arial" font-size="8.00">tasks</text>
</g>
<!-- image_processing_2&#45;&gt;tasks_8 -->
<g id="edge7" class="edge">
<title>image_processing_2&#45;&gt;tasks_8</title>
<path fill="none" stroke="black" d="M308.82,-79.66C345.41,-70.82 400.59,-56.35 456.06,-36.06"/>
<polygon fill="black" stroke="black" points="457.53,-39.24 465.69,-32.48 455.09,-32.68 457.53,-39.24"/>
</g>
<!-- simple_options_file_parser_10 -->
<g id="node10" class="node">
<title>simple_options_file_parser_10</title>
<polygon fill="white" stroke="black" points="649.5,-36 538.5,-36 538.5,0 649.5,0 649.5,-36"/>
<text text-anchor="middle" x="594" y="-16.1" font-family="arial" font-size="8.00">simple_options_file_parser</text>
</g>
<!-- libraries_9&#45;&gt;simple_options_file_parser_10 -->
<g id="edge9" class="edge">
<title>libraries_9&#45;&gt;simple_options_file_parser_10</title>
<path fill="none" stroke="black" d="M501.23,-73.12C517.36,-63.7 538.06,-51.63 555.81,-41.28"/>
<polygon fill="black" stroke="black" points="557.91,-44.11 564.78,-36.04 554.38,-38.06 557.91,-44.11"/>
</g>
</g>
</svg>
