<?xml version="1.0" encoding="UTF-8" standalone="no"?>
<!DOCTYPE svg PUBLIC "-//W3C//DTD SVG 1.1//EN"
 "http://www.w3.org/Graphics/SVG/1.1/DTD/svg11.dtd">
<!-- Generated by graphviz version 2.43.0 (0)
 -->
<!-- Title: G Pages: 1 -->
<svg width="650pt" height="188pt"
 viewBox="0.00 0.00 649.50 188.00" xmlns="http://www.w3.org/2000/svg" xmlns:xlink="http://www.w3.org/1999/xlink">
<g id="graph0" class="graph" transform="scale(1 1) rotate(0) translate(4 184)">
<title>G</title>
<!-- tools_1 -->
<g id="node1" class="node">
<title>tools_1</title>
<polygon fill="white" stroke="black" points="349.5,-180 295.5,-180 295.5,-144 349.5,-144 349.5,-180"/>
<text text-anchor="middle" x="322.5" y="-160.1" font-family="arial" font-size="8.00">tools</text>
</g>
<!-- ToolkitEditor_2 -->
<g id="node2" class="node">
<title>ToolkitEditor_2</title>
<polygon fill="white" stroke="black" points="168,-108 109,-108 109,-72 168,-72 168,-108"/>
<text text-anchor="middle" x="138.5" y="-88.1" font-family="arial" font-size="8.00">ToolkitEditor</text>
</g>
<!-- tools_1&#45;&gt;ToolkitEditor_2 -->
<g id="edge1" class="edge">
<title>tools_1&#45;&gt;ToolkitEditor_2</title>
<path fill="none" stroke="black" d="M295.35,-150.67C264.28,-138.85 213.14,-119.4 177.74,-105.93"/>
<polygon fill="black" stroke="black" points="178.79,-102.58 168.2,-102.3 176.31,-109.13 178.79,-102.58"/>
</g>
<!-- WorkflowEditor_6 -->
<g id="node6" class="node">
<title>WorkflowEditor_6</title>
<polygon fill="white" stroke="black" points="358,-108 287,-108 287,-72 358,-72 358,-108"/>
<text text-anchor="middle" x="322.5" y="-88.1" font-family="arial" font-size="8.00">WorkflowEditor</text>
</g>
<!-- tools_1&#45;&gt;WorkflowEditor_6 -->
<g id="edge5" class="edge">
<title>tools_1&#45;&gt;WorkflowEditor_6</title>
<path fill="none" stroke="black" d="M322.5,-143.7C322.5,-135.98 322.5,-126.71 322.5,-118.11"/>
<polygon fill="black" stroke="black" points="326,-118.1 322.5,-108.1 319,-118.1 326,-118.1"/>
</g>
<!-- WorkflowLauncher_10 -->
<g id="node10" class="node">
<title>WorkflowLauncher_10</title>
<polygon fill="white" stroke="black" points="547,-108 464,-108 464,-72 547,-72 547,-108"/>
<text text-anchor="middle" x="505.5" y="-88.1" font-family="arial" font-size="8.00">WorkflowLauncher</text>
</g>
<!-- tools_1&#45;&gt;WorkflowLauncher_10 -->
<g id="edge9" class="edge">
<title>tools_1&#45;&gt;WorkflowLauncher_10</title>
<path fill="none" stroke="black" d="M349.5,-150.67C376.92,-140.18 420.06,-123.68 454.03,-110.69"/>
<polygon fill="black" stroke="black" points="455.71,-113.79 463.8,-106.95 453.21,-107.25 455.71,-113.79"/>
</g>
<!-- linux_menu_3 -->
<g id="node3" class="node">
<title>linux_menu_3</title>
<polygon fill="white" stroke="black" points="57,-36 0,-36 0,0 57,0 57,-36"/>
<text text-anchor="middle" x="28.5" y="-16.1" font-family="arial" font-size="8.00">linux_menu</text>
</g>
<!-- ToolkitEditor_2&#45;&gt;linux_menu_3 -->
<g id="edge2" class="edge">
<title>ToolkitEditor_2&#45;&gt;linux_menu_3</title>
<path fill="none" stroke="black" d="M111.59,-71.88C97.34,-62.81 79.65,-51.55 64.26,-41.76"/>
<polygon fill="black" stroke="black" points="65.83,-38.61 55.51,-36.19 62.07,-44.51 65.83,-38.61"/>
</g>
<!-- resources_4 -->
<g id="node4" class="node">
<title>resources_4</title>
<polygon fill="white" stroke="black" points="129.5,-36 75.5,-36 75.5,0 129.5,0 129.5,-36"/>
<text text-anchor="middle" x="102.5" y="-16.1" font-family="arial" font-size="8.00">resources</text>
</g>
<!-- ToolkitEditor_2&#45;&gt;resources_4 -->
<g id="edge3" class="edge">
<title>ToolkitEditor_2&#45;&gt;resources_4</title>
<path fill="none" stroke="black" d="M129.6,-71.7C125.5,-63.73 120.55,-54.1 116.01,-45.26"/>
<polygon fill="black" stroke="black" points="118.98,-43.4 111.3,-36.1 112.76,-46.6 118.98,-43.4"/>
</g>
<!-- src_5 -->
<g id="node5" class="node">
<title>src_5</title>
<polygon fill="white" stroke="black" points="201.5,-36 147.5,-36 147.5,0 201.5,0 201.5,-36"/>
<text text-anchor="middle" x="174.5" y="-16.1" font-family="arial" font-size="8.00">src</text>
</g>
<!-- ToolkitEditor_2&#45;&gt;src_5 -->
<g id="edge4" class="edge">
<title>ToolkitEditor_2&#45;&gt;src_5</title>
<path fill="none" stroke="black" d="M147.4,-71.7C151.5,-63.73 156.45,-54.1 160.99,-45.26"/>
<polygon fill="black" stroke="black" points="164.24,-46.6 165.7,-36.1 158.02,-43.4 164.24,-46.6"/>
</g>
<!-- linux_menu_7 -->
<g id="node7" class="node">
<title>linux_menu_7</title>
<polygon fill="white" stroke="black" points="277,-36 220,-36 220,0 277,0 277,-36"/>
<text text-anchor="middle" x="248.5" y="-16.1" font-family="arial" font-size="8.00">linux_menu</text>
</g>
<!-- WorkflowEditor_6&#45;&gt;linux_menu_7 -->
<g id="edge6" class="edge">
<title>WorkflowEditor_6&#45;&gt;linux_menu_7</title>
<path fill="none" stroke="black" d="M304.21,-71.7C295.07,-63.05 283.86,-52.45 273.9,-43.03"/>
<polygon fill="black" stroke="black" points="276.25,-40.43 266.58,-36.1 271.44,-45.52 276.25,-40.43"/>
</g>
<!-- resources_8 -->
<g id="node8" class="node">
<title>resources_8</title>
<polygon fill="white" stroke="black" points="349.5,-36 295.5,-36 295.5,0 349.5,0 349.5,-36"/>
<text text-anchor="middle" x="322.5" y="-16.1" font-family="arial" font-size="8.00">resources</text>
</g>
<!-- WorkflowEditor_6&#45;&gt;resources_8 -->
<g id="edge7" class="edge">
<title>WorkflowEditor_6&#45;&gt;resources_8</title>
<path fill="none" stroke="black" d="M322.5,-71.7C322.5,-63.98 322.5,-54.71 322.5,-46.11"/>
<polygon fill="black" stroke="black" points="326,-46.1 322.5,-36.1 319,-46.1 326,-46.1"/>
</g>
<!-- src_9 -->
<g id="node9" class="node">
<title>src_9</title>
<polygon fill="white" stroke="black" points="421.5,-36 367.5,-36 367.5,0 421.5,0 421.5,-36"/>
<text text-anchor="middle" x="394.5" y="-16.1" font-family="arial" font-size="8.00">src</text>
</g>
<!-- WorkflowEditor_6&#45;&gt;src_9 -->
<g id="edge8" class="edge">
<title>WorkflowEditor_6&#45;&gt;src_9</title>
<path fill="none" stroke="black" d="M340.3,-71.7C349.1,-63.14 359.88,-52.66 369.5,-43.3"/>
<polygon fill="black" stroke="black" points="372.18,-45.58 376.91,-36.1 367.3,-40.57 372.18,-45.58"/>
</g>
<!-- linux_menu_11 -->
<g id="node11" class="node">
<title>linux_menu_11</title>
<polygon fill="white" stroke="black" points="497,-36 440,-36 440,0 497,0 497,-36"/>
<text text-anchor="middle" x="468.5" y="-16.1" font-family="arial" font-size="8.00">linux_menu</text>
</g>
<!-- WorkflowLauncher_10&#45;&gt;linux_menu_11 -->
<g id="edge10" class="edge">
<title>WorkflowLauncher_10&#45;&gt;linux_menu_11</title>
<path fill="none" stroke="black" d="M496.35,-71.7C492.1,-63.64 486.94,-53.89 482.23,-44.98"/>
<polygon fill="black" stroke="black" points="485.31,-43.31 477.54,-36.1 479.12,-46.58 485.31,-43.31"/>
</g>
<!-- resources_12 -->
<g id="node12" class="node">
<title>resources_12</title>
<polygon fill="white" stroke="black" points="569.5,-36 515.5,-36 515.5,0 569.5,0 569.5,-36"/>
<text text-anchor="middle" x="542.5" y="-16.1" font-family="arial" font-size="8.00">resources</text>
</g>
<!-- WorkflowLauncher_10&#45;&gt;resources_12 -->
<g id="edge11" class="edge">
<title>WorkflowLauncher_10&#45;&gt;resources_12</title>
<path fill="none" stroke="black" d="M514.65,-71.7C518.9,-63.64 524.06,-53.89 528.77,-44.98"/>
<polygon fill="black" stroke="black" points="531.88,-46.58 533.46,-36.1 525.69,-43.31 531.88,-46.58"/>
</g>
<!-- src_13 -->
<g id="node13" class="node">
<title>src_13</title>
<polygon fill="white" stroke="black" points="641.5,-36 587.5,-36 587.5,0 641.5,0 641.5,-36"/>
<text text-anchor="middle" x="614.5" y="-16.1" font-family="arial" font-size="8.00">src</text>
</g>
<!-- WorkflowLauncher_10&#45;&gt;src_13 -->
<g id="edge12" class="edge">
<title>WorkflowLauncher_10&#45;&gt;src_13</title>
<path fill="none" stroke="black" d="M532.16,-71.88C546.28,-62.81 563.81,-51.55 579.06,-41.76"/>
<polygon fill="black" stroke="black" points="581.21,-44.54 587.73,-36.19 577.43,-38.65 581.21,-44.54"/>
</g>
</g>
</svg>
