<?xml version="1.0" encoding="UTF-8" standalone="no"?>
<!DOCTYPE svg PUBLIC "-//W3C//DTD SVG 1.1//EN"
 "http://www.w3.org/Graphics/SVG/1.1/DTD/svg11.dtd">
<!-- Generated by graphviz version 2.43.0 (0)
 -->
<!-- Title: G Pages: 1 -->
<svg width="422pt" height="116pt"
 viewBox="0.00 0.00 422.00 116.00" xmlns="http://www.w3.org/2000/svg" xmlns:xlink="http://www.w3.org/1999/xlink">
<g id="graph0" class="graph" transform="scale(1 1) rotate(0) translate(4 112)">
<title>G</title>
<!-- WorkflowMaker_1 -->
<g id="node1" class="node">
<title>WorkflowMaker_1</title>
<polygon fill="white" stroke="black" points="243,-108 171,-108 171,-72 243,-72 243,-108"/>
<text text-anchor="middle" x="207" y="-88.1" font-family="arial" font-size="8.00">WorkflowMaker</text>
</g>
<!-- data_2 -->
<g id="node2" class="node">
<title>data_2</title>
<polygon fill="white" stroke="black" points="54,-36 0,-36 0,0 54,0 54,-36"/>
<text text-anchor="middle" x="27" y="-16.1" font-family="arial" font-size="8.00">data</text>
</g>
<!-- WorkflowMaker_1&#45;&gt;data_2 -->
<g id="edge1" class="edge">
<title>WorkflowMaker_1&#45;&gt;data_2</title>
<path fill="none" stroke="black" d="M170.85,-76.69C143.53,-67.17 104.96,-53.26 63.24,-35.94"/>
<polygon fill="black" stroke="black" points="64.59,-32.71 54.01,-32.07 61.88,-39.16 64.59,-32.71"/>
</g>
<!-- docs_3 -->
<g id="node3" class="node">
<title>docs_3</title>
<polygon fill="white" stroke="black" points="126,-36 72,-36 72,0 126,0 126,-36"/>
<text text-anchor="middle" x="99" y="-16.1" font-family="arial" font-size="8.00">docs</text>
</g>
<!-- WorkflowMaker_1&#45;&gt;docs_3 -->
<g id="edge2" class="edge">
<title>WorkflowMaker_1&#45;&gt;docs_3</title>
<path fill="none" stroke="black" d="M180.58,-71.88C166.59,-62.81 149.22,-51.55 134.11,-41.76"/>
<polygon fill="black" stroke="black" points="135.82,-38.69 125.52,-36.19 132.01,-44.57 135.82,-38.69"/>
</g>
<!-- installer_4 -->
<g id="node4" class="node">
<title>installer_4</title>
<polygon fill="white" stroke="black" points="198,-36 144,-36 144,0 198,0 198,-36"/>
<text text-anchor="middle" x="171" y="-16.1" font-family="arial" font-size="8.00">installer</text>
</g>
<!-- WorkflowMaker_1&#45;&gt;installer_4 -->
<g id="edge3" class="edge">
<title>WorkflowMaker_1&#45;&gt;installer_4</title>
<path fill="none" stroke="black" d="M198.1,-71.7C194,-63.73 189.05,-54.1 184.51,-45.26"/>
<polygon fill="black" stroke="black" points="187.48,-43.4 179.8,-36.1 181.26,-46.6 187.48,-43.4"/>
</g>
<!-- libraries_5 -->
<g id="node5" class="node">
<title>libraries_5</title>
<polygon fill="white" stroke="black" points="270,-36 216,-36 216,0 270,0 270,-36"/>
<text text-anchor="middle" x="243" y="-16.1" font-family="arial" font-size="8.00">libraries</text>
</g>
<!-- WorkflowMaker_1&#45;&gt;libraries_5 -->
<g id="edge4" class="edge">
<title>WorkflowMaker_1&#45;&gt;libraries_5</title>
<path fill="none" stroke="black" d="M215.9,-71.7C220,-63.73 224.95,-54.1 229.49,-45.26"/>
<polygon fill="black" stroke="black" points="232.74,-46.6 234.2,-36.1 226.52,-43.4 232.74,-46.6"/>
</g>
<!-- samples_6 -->
<g id="node6" class="node">
<title>samples_6</title>
<polygon fill="white" stroke="black" points="342,-36 288,-36 288,0 342,0 342,-36"/>
<text text-anchor="middle" x="315" y="-16.1" font-family="arial" font-size="8.00">samples</text>
</g>
<!-- WorkflowMaker_1&#45;&gt;samples_6 -->
<g id="edge5" class="edge">
<title>WorkflowMaker_1&#45;&gt;samples_6</title>
<path fill="none" stroke="black" d="M233.42,-71.88C247.41,-62.81 264.78,-51.55 279.89,-41.76"/>
<polygon fill="black" stroke="black" points="281.99,-44.57 288.48,-36.19 278.18,-38.69 281.99,-44.57"/>
</g>
<!-- tools_7 -->
<g id="node7" class="node">
<title>tools_7</title>
<polygon fill="white" stroke="black" points="414,-36 360,-36 360,0 414,0 414,-36"/>
<text text-anchor="middle" x="387" y="-16.1" font-family="arial" font-size="8.00">tools</text>
</g>
<!-- WorkflowMaker_1&#45;&gt;tools_7 -->
<g id="edge6" class="edge">
<title>WorkflowMaker_1&#45;&gt;tools_7</title>
<path fill="none" stroke="black" d="M243.15,-76.69C270.47,-67.17 309.04,-53.26 350.76,-35.94"/>
<polygon fill="black" stroke="black" points="352.12,-39.16 359.99,-32.07 349.41,-32.71 352.12,-39.16"/>
</g>
</g>
</svg>
