<?xml version="1.0" encoding="UTF-8" standalone="no"?>
<!-- Generated by graphviz version 10.0.1 (20240210.2158)
 -->

<!-- Title: G Pages: 1 -->

<svg
   width="632pt"
   height="116pt"
   viewBox="0.00 0.00 631.62 116.00"
   version="1.1"
   id="svg124"
   sodipodi:docname="workflowmaker_windows.svg"
   inkscape:version="1.1.2 (0a00cf5339, 2022-02-04)"
   xmlns:inkscape="http://www.inkscape.org/namespaces/inkscape"
   xmlns:sodipodi="http://sodipodi.sourceforge.net/DTD/sodipodi-0.dtd"
   xmlns="http://www.w3.org/2000/svg"
   xmlns:svg="http://www.w3.org/2000/svg">
  <defs
     id="defs128" />
  <sodipodi:namedview
     id="namedview126"
     pagecolor="#ffffff"
     bordercolor="#666666"
     borderopacity="1.0"
     inkscape:pageshadow="2"
     inkscape:pageopacity="0.0"
     inkscape:pagecheckerboard="0"
     inkscape:document-units="pt"
     showgrid="false"
     inkscape:zoom="1.5795095"
     inkscape:cx="462.1688"
     inkscape:cy="77.239169"
     inkscape:window-width="1920"
     inkscape:window-height="1008"
     inkscape:window-x="1680"
     inkscape:window-y="0"
     inkscape:window-maximized="1"
     inkscape:current-layer="svg124" />
  <polygon
     fill="#ffffff"
     stroke="#000000"
     points="335.88,-108 238.12,-108 238.12,-72 335.88,-72 "
     id="polygon6"
     transform="translate(4,112)" />
  <text
     text-anchor="middle"
     x="291"
     y="24.349998"
     font-family="arial"
     font-size="8px"
     id="text8">WorkflowMaker</text>
  <g
     id="node2"
     class="node"
     transform="translate(4,112)">
    <title
       id="title11">data_2</title>
    <polygon
       fill="#ffffff"
       stroke="#000000"
       points="0,0 54,0 54,-36 0,-36 "
       id="polygon13" />
    <text
       text-anchor="middle"
       x="27"
       y="-15.65"
       font-family="arial"
       font-size="8px"
       id="text15">data</text>
  </g>
  <g
     id="edge1"
     class="edge"
     transform="translate(4,112)">
    <title
       id="title18">WorkflowMaker-github_1-&gt;data_2</title>
    <path
       fill="none"
       stroke="#000000"
       d="m 237.66,-80.4 c -43.54,8.26 -108.69,22.29 -172.71,44.09"
       id="path20" />
    <polygon
       fill="#000000"
       stroke="#000000"
       points="63.99,-39.69 66.29,-33.07 55.7,-33.1 "
       id="polygon22" />
  </g>
  <g
     id="node3"
     class="node"
     transform="translate(4,112)">
    <title
       id="title25">docs_3</title>
    <polygon
       fill="#ffffff"
       stroke="#000000"
       points="72,0 126,0 126,-36 72,-36 "
       id="polygon27" />
    <text
       text-anchor="middle"
       x="99"
       y="-15.65"
       font-family="arial"
       font-size="8px"
       id="text29">docs</text>
  </g>
  <g
     id="edge2"
     class="edge"
     transform="translate(4,112)">
    <title
       id="title32">WorkflowMaker-github_1-&gt;docs_3</title>
    <path
       fill="none"
       stroke="#000000"
       d="m 237.91,-73.35 c -27.56,9.12 -62.69,21.29 -101.14,36.81"
       id="path34" />
    <polygon
       fill="#000000"
       stroke="#000000"
       points="135.72,-39.89 138.37,-33.41 127.79,-32.87 "
       id="polygon36" />
  </g>
  <g
     id="node4"
     class="node"
     transform="translate(4,112)">
    <title
       id="title39">installer_4</title>
    <polygon
       fill="#ffffff"
       stroke="#000000"
       points="144,0 198,0 198,-36 144,-36 "
       id="polygon41" />
    <text
       text-anchor="middle"
       x="171"
       y="-15.65"
       font-family="arial"
       font-size="8px"
       id="text43">installer</text>
  </g>
  <g
     id="edge3"
     class="edge"
     transform="translate(4,112)">
    <title
       id="title46">WorkflowMaker-github_1-&gt;installer_4</title>
    <path
       fill="none"
       stroke="#000000"
       d="m 258.03,-71.52 c -15.12,9.12 -33.78,20.39 -49.94,30.14"
       id="path48" />
    <polygon
       fill="#000000"
       stroke="#000000"
       points="206.46,-44.48 210.07,-38.49 199.7,-36.32 "
       id="polygon50" />
  </g>
  <g
     id="node5"
     class="node"
     transform="translate(4,112)">
    <title
       id="title53">libraries_5</title>
    <polygon
       fill="#ffffff"
       stroke="#000000"
       points="216,0 270,0 270,-36 216,-36 "
       id="polygon55" />
    <text
       text-anchor="middle"
       x="243"
       y="-15.65"
       font-family="arial"
       font-size="8px"
       id="text57">libraries</text>
  </g>
  <g
     id="edge4"
     class="edge"
     transform="translate(4,112)">
    <title
       id="title60">WorkflowMaker-github_1-&gt;libraries_5</title>
    <path
       fill="none"
       stroke="#000000"
       d="m 276.12,-71.7 c -4.9,7.8 -10.8,17.19 -16.26,25.87"
       id="path62" />
    <polygon
       fill="#000000"
       stroke="#000000"
       points="256.92,-47.71 262.84,-43.99 254.56,-37.39 "
       id="polygon64" />
  </g>
  <polygon
     fill="#ffffff"
     stroke="#000000"
     points="374.25,-36 287.75,-36 287.75,0 374.25,0 "
     id="polygon69"
     transform="translate(4,112)"
     style="stroke:#ff0000;stroke-opacity:1" />
  <text
     text-anchor="middle"
     x="335"
     y="96.349998"
     font-family="arial"
     font-size="8px"
     id="text71"
     style="stroke:#fe0000;stroke-opacity:1;stroke-width:0.09999999;stroke-miterlimit:4;stroke-dasharray:none;fill:#ff0000;fill-opacity:1">QT_redistributables</text>
  <g
     id="g4095">
    <path
       fill="none"
       stroke="#000000"
       d="m 301.88,40.3 c 4.9,7.8 10.8,17.19 16.26,25.87"
       id="path76"
       style="stroke:#ff0000;stroke-opacity:1" />
    <polygon
       fill="#000000"
       stroke="#000000"
       points="319.44,-37.39 311.16,-43.99 317.08,-47.71 "
       id="polygon78"
       transform="translate(4,112)"
       style="stroke:#fd0000;stroke-opacity:1;fill:#ff0000;fill-opacity:1" />
  </g>
  <g
     id="node7"
     class="node"
     transform="translate(4,112)">
    <title
       id="title81">samples_7</title>
    <polygon
       fill="#ffffff"
       stroke="#000000"
       points="392,0 446,0 446,-36 392,-36 "
       id="polygon83" />
    <text
       text-anchor="middle"
       x="419"
       y="-15.65"
       font-family="arial"
       font-size="8px"
       id="text85">samples</text>
  </g>
  <g
     id="edge6"
     class="edge"
     transform="translate(4,112)">
    <title
       id="title88">WorkflowMaker-github_1-&gt;samples_7</title>
    <path
       fill="none"
       stroke="#000000"
       d="m 319.97,-71.52 c 18.77,9.96 42.34,22.46 61.78,32.77"
       id="path90" />
    <polygon
       fill="#000000"
       stroke="#000000"
       points="379.97,-35.74 383.25,-41.92 390.44,-34.14 "
       id="polygon92" />
  </g>
  <g
     id="node8"
     class="node"
     transform="translate(4,112)">
    <title
       id="title95">tools_8</title>
    <polygon
       fill="#ffffff"
       stroke="#000000"
       points="464,0 518,0 518,-36 464,-36 "
       id="polygon97" />
    <text
       text-anchor="middle"
       x="491"
       y="-15.65"
       font-family="arial"
       font-size="8px"
       id="text99">tools</text>
  </g>
  <g
     id="edge7"
     class="edge"
     transform="translate(4,112)">
    <title
       id="title102">WorkflowMaker-github_1-&gt;tools_8</title>
    <path
       fill="none"
       stroke="#000000"
       d="m 336.13,-75.41 c 31.31,9.09 72.85,21.93 116.89,38.87"
       id="path104" />
    <polygon
       fill="#000000"
       stroke="#000000"
       points="451.65,-33.31 454.2,-39.83 462.24,-32.93 "
       id="polygon106" />
  </g>
  <polygon
     fill="#ffffff"
     stroke="#000000"
     points="623.62,-36 536.38,-36 536.38,0 623.62,0 "
     id="polygon111"
     transform="translate(4,112)"
     style="stroke:#ff0000;stroke-opacity:1" />
  <text
     text-anchor="middle"
     x="584"
     y="96.349998"
     font-family="arial"
     font-size="8px"
     id="text113"
     style="stroke-width:0.09999999;stroke-miterlimit:4;stroke-dasharray:none;stroke:#ff0000;stroke-opacity:1;fill:#ff0000;fill-opacity:1">VC_redistributables</text>
  <g
     id="g3783">
    <path
       fill="none"
       stroke="#000000"
       d="m 340.05,32.44 c 46.35,9.23 118.03,24.3 189.14,43.2"
       id="path118"
       style="stroke:#ff0000;stroke-opacity:1" />
    <polygon
       fill="#000000"
       stroke="#000000"
       points="534.67,-33.81 524.11,-33.02 525.92,-39.79 "
       id="polygon120"
       transform="translate(4,112)"
       style="fill:#ff0000;fill-opacity:1;stroke:#ff0000;stroke-opacity:1" />
  </g>
</svg>
