<?xml version="1.0" encoding="UTF-8" standalone="no"?>
<!-- Created with Inkscape (http://www.inkscape.org/) -->

<svg
   width="210mm"
   height="297mm"
   viewBox="0 0 210 297"
   version="1.1"
   id="svg5"
   xml:space="preserve"
   inkscape:version="1.2.2 (732a01da63, 2022-12-09)"
   sodipodi:docname="installer.svg"
   inkscape:export-filename="installer.png"
   inkscape:export-xdpi="329.98965"
   inkscape:export-ydpi="329.98965"
   xmlns:inkscape="http://www.inkscape.org/namespaces/inkscape"
   xmlns:sodipodi="http://sodipodi.sourceforge.net/DTD/sodipodi-0.dtd"
   xmlns="http://www.w3.org/2000/svg"
   xmlns:svg="http://www.w3.org/2000/svg"><sodipodi:namedview
     id="namedview7"
     pagecolor="#ffffff"
     bordercolor="#000000"
     borderopacity="0.25"
     inkscape:showpageshadow="2"
     inkscape:pageopacity="0.0"
     inkscape:pagecheckerboard="0"
     inkscape:deskcolor="#d1d1d1"
     inkscape:document-units="mm"
     showgrid="false"
     inkscape:zoom="1"
     inkscape:cx="603.5"
     inkscape:cy="561"
     inkscape:window-width="1920"
     inkscape:window-height="1009"
     inkscape:window-x="-8"
     inkscape:window-y="-8"
     inkscape:window-maximized="1"
     inkscape:current-layer="layer1" /><defs
     id="defs2" /><g
     inkscape:label="Capa 1"
     inkscape:groupmode="layer"
     id="layer1"><path
       style="fill:#000000;stroke-width:0.133714"
       d="m 136.95272,156.12506 c -0.0811,-0.47803 -0.21456,-1.26471 -0.29661,-1.74819 -0.11819,-0.69652 -0.20842,-0.90182 -0.43457,-0.9887 -0.15697,-0.0603 -0.82695,-0.33471 -1.48883,-0.6098 -0.66188,-0.27508 -1.32377,-0.50483 -1.47085,-0.51056 -0.14709,-0.006 -1.0097,0.5235 -1.91691,1.17606 l -1.64947,1.18647 -2.41687,-2.41687 -2.41687,-2.41688 1.17069,-1.63804 c 0.64389,-0.90092 1.19685,-1.70616 1.2288,-1.78942 0.0319,-0.0833 -0.14819,-0.59985 -0.40029,-1.148 -0.25211,-0.54814 -0.53319,-1.24921 -0.62465,-1.55792 -0.1896,-0.64003 -0.14052,-0.62213 -2.90271,-1.0582 l -1.50428,-0.23749 v -3.42567 -3.42569 l 2.03914,-0.29763 c 2.03023,-0.29634 2.37342,-0.42795 2.37342,-0.91019 0,-0.0939 0.24529,-0.74262 0.54507,-1.44154 0.32325,-0.75359 0.50234,-1.34031 0.44008,-1.44166 -0.0577,-0.094 -0.60704,-0.85912 -1.22064,-1.70025 l -1.11565,-1.52935 2.37904,-2.3818 c 1.30846,-1.30998 2.43983,-2.38145 2.51414,-2.38104 0.0743,4.1e-4 0.85657,0.51186 1.73836,1.13657 0.88179,0.6247 1.6405,1.13583 1.68602,1.13583 0.0455,0 0.52749,-0.20453 1.07103,-0.45451 0.54354,-0.24997 1.23952,-0.52893 1.54661,-0.6199 0.6393,-0.18938 0.57466,-0.0214 0.98858,-2.56931 l 0.29868,-1.83856 h 3.4361 3.43609 l 0.29673,1.83856 c 0.16319,1.01122 0.32442,1.93643 0.35827,2.05603 0.0344,0.12134 0.42929,0.3506 0.89352,0.5187 0.45757,0.16569 1.17059,0.47115 1.58447,0.6788 l 0.75253,0.37755 1.74365,-1.19711 c 0.95902,-0.65841 1.77121,-1.19711 1.80488,-1.19711 0.0337,0 1.12169,1.10622 2.4178,2.45826 l 2.35658,2.45826 -1.14854,1.57347 c -0.6317,0.86541 -1.17727,1.64832 -1.21238,1.7398 -0.0351,0.0915 0.11235,0.51859 0.32767,0.94912 0.21532,0.43054 0.49824,1.11374 0.6287,1.51822 0.13046,0.40449 0.25159,0.75291 0.26917,0.77428 0.0311,0.0378 3.77697,0.69273 3.97684,0.69529 0.0552,5.1e-4 0.10028,1.55857 0.10028,3.46192 v 3.46064 l -1.50428,0.22596 c -0.82736,0.12428 -1.72752,0.2591 -2.00036,0.2996 -0.45891,0.0681 -0.51302,0.125 -0.7223,0.75939 -0.12442,0.37717 -0.41842,1.1092 -0.65334,1.62672 l -0.42712,0.94095 1.24378,1.73333 1.24376,1.73333 -2.3661,2.37343 c -1.30135,1.30538 -2.41624,2.37342 -2.47752,2.37342 -0.0613,0 -0.81405,-0.49879 -1.67282,-1.10842 -0.85877,-0.60963 -1.63423,-1.15324 -1.72323,-1.20803 -0.0896,-0.0551 -0.50762,0.0739 -0.936,0.28886 -0.4258,0.21366 -1.13922,0.52064 -1.5854,0.68217 l -0.81123,0.29369 -0.23472,1.49529 c -0.1291,0.82242 -0.26698,1.63068 -0.30641,1.79616 l -0.0717,0.30085 h -3.5152 -3.5152 z m 5.64018,-10.31944 c 1.19571,-0.35475 2.0003,-0.84905 2.98522,-1.83398 1.46812,-1.46811 2.10472,-2.98668 2.10816,-5.02884 0.0106,-6.2699 -7.51404,-9.49273 -12.0678,-5.16871 -2.80372,2.66228 -2.97214,7.18606 -0.37075,9.95857 1.9572,2.08594 4.69609,2.85891 7.34517,2.07296 z"
       id="path125" /><path
       style="fill:#000000;stroke-width:0.457229"
       d="m 111.73273,170.99411 c -4.10685,-1.14234 -7.33496,-4.33641 -8.4963,-8.40675 -0.36978,-1.29602 -0.47567,-12.84571 -0.37829,-41.25849 0.13012,-37.950571 0.16882,-39.527441 1.01258,-41.260039 1.19103,-2.445551 3.59816,-4.806888 6.10361,-5.987496 1.99086,-0.938119 2.84694,-0.98586 20.19877,-1.126396 12.00035,-0.09716 18.67586,0.02058 19.7663,0.348697 1.3449,0.404722 3.95874,3.090755 14.26934,14.663465 6.94258,7.792377 13.28985,14.981199 14.10509,15.975159 l 1.48222,1.80718 -0.12327,28.44203 c -0.11728,27.06475 -0.16573,28.52926 -1.00059,30.24347 -1.19103,2.44555 -3.59815,4.80689 -6.10359,5.9875 -2.04176,0.9621 -2.58585,0.98131 -30.39116,1.07224 -21.89015,0.0715 -28.79593,-0.042 -30.44474,-0.50057 z m 57.81859,-10.23959 c 0.62668,-0.63845 0.71184,-3.28847 0.71184,-22.1522 v -21.42698 l -11.66462,-3.5e-4 -11.66462,-3.7e-4 -2.72208,-1.31199 c -3.03562,-1.46307 -5.31449,-3.8206 -6.73834,-6.97091 -0.87005,-1.92501 -0.96236,-3.09163 -1.10652,-13.983951 l -0.15734,-11.88373 h -11.25309 c -9.6261,0 -11.35601,0.10483 -11.96494,0.725214 -0.63555,0.647472 -0.71186,4.774863 -0.71186,38.502637 0,33.72777 0.0764,37.85516 0.71186,38.50263 0.63155,0.64341 3.82202,0.72522 28.27984,0.72522 24.45781,0 27.64829,-0.0818 28.27983,-0.72522 z M 167.255,105.98387 c -0.75563,-0.82493 -5.62377,-6.276469 -10.81805,-12.114481 -5.19429,-5.838029 -9.6103,-10.683831 -9.81335,-10.768446 -0.20304,-0.0846 -0.36917,4.857158 -0.36917,10.981701 v 11.135546 l 1.1119,1.13278 1.11189,1.13278 h 10.07534 10.07534 z"
       id="path193" /></g></svg>
