<?xml version="1.0" encoding="UTF-8" standalone="no"?>
<!-- Generated by graphviz version 2.43.0 (0)
 -->

<!-- Title: G Pages: 1 -->

<svg
   width="235pt"
   height="260pt"
   viewBox="0.00 0.00 234.50 260.00"
   version="1.1"
   id="svg110"
   sodipodi:docname="imagemagick_folders.svg"
   inkscape:version="1.2.2 (b0a8486541, 2022-12-01)"
   xmlns:inkscape="http://www.inkscape.org/namespaces/inkscape"
   xmlns:sodipodi="http://sodipodi.sourceforge.net/DTD/sodipodi-0.dtd"
   xmlns="http://www.w3.org/2000/svg"
   xmlns:svg="http://www.w3.org/2000/svg">
  <defs
     id="defs114" />
  <sodipodi:namedview
     id="namedview112"
     pagecolor="#ffffff"
     bordercolor="#666666"
     borderopacity="1.0"
     inkscape:showpageshadow="2"
     inkscape:pageopacity="0.0"
     inkscape:pagecheckerboard="0"
     inkscape:deskcolor="#d1d1d1"
     inkscape:document-units="pt"
     showgrid="false"
     inkscape:zoom="2.4865385"
     inkscape:cx="157.04563"
     inkscape:cy="108.98685"
     inkscape:window-width="1920"
     inkscape:window-height="1008"
     inkscape:window-x="1680"
     inkscape:window-y="0"
     inkscape:window-maximized="1"
     inkscape:current-layer="svg110" />
  <g
     id="node1"
     class="node"
     transform="translate(4,256)">
    <title
       id="title4">libraries_1</title>
    <polygon
       fill="#ffffff"
       stroke="#000000"
       points="91,-216 145,-216 145,-252 91,-252 "
       id="polygon6" />
    <text
       text-anchor="middle"
       x="118"
       y="-232.10001"
       font-family="arial"
       font-size="8px"
       id="text8">libraries</text>
  </g>
  <polygon
     fill="#ffffff"
     stroke="#000000"
     points="97.5,-180 34.5,-180 34.5,-144 97.5,-144 "
     id="polygon13"
     transform="translate(4,256)"
     style="stroke:#ff0000;stroke-opacity:1" />
  <text
     text-anchor="middle"
     x="70"
     y="95.899994"
     font-family="arial"
     font-size="8px"
     id="text15"
     style="fill:#ff0000">imagemagick</text>
  <g
     id="edge1"
     class="edge"
     transform="translate(4,256)">
    <title
       id="title18">libraries_1-&gt;imagemagick_2</title>
    <path
       fill="none"
       stroke="#000000"
       d="m 105.15,-215.7 c -6.18,8.31 -13.69,18.42 -20.47,27.56"
       id="path20" />
    <polygon
       fill="#000000"
       stroke="#000000"
       points="81.86,-190.22 87.48,-186.04 78.71,-180.1 "
       id="polygon22" />
  </g>
  <g
     id="node8"
     class="node"
     transform="translate(4,256)">
    <title
       id="title25">simple_options_file_parser_8</title>
    <polygon
       fill="#ffffff"
       stroke="#000000"
       points="115.5,-144 226.5,-144 226.5,-180 115.5,-180 "
       id="polygon27" />
    <text
       text-anchor="middle"
       x="171"
       y="-160.10001"
       font-family="arial"
       font-size="8px"
       id="text29">simple_options_file_parser</text>
  </g>
  <g
     id="edge7"
     class="edge"
     transform="translate(4,256)">
    <title
       id="title32">libraries_1-&gt;simple_options_file_parser_8</title>
    <path
       fill="none"
       stroke="#000000"
       d="m 131.1,-215.7 c 6.29,8.31 13.95,18.42 20.86,27.56"
       id="path34" />
    <polygon
       fill="#000000"
       stroke="#000000"
       points="149.22,-185.96 154.8,-190.19 158.05,-180.1 "
       id="polygon36" />
  </g>
  <polygon
     fill="#ffffff"
     stroke="#000000"
     points="57,-108 3,-108 3,-72 57,-72 "
     id="polygon41"
     transform="translate(4,256)"
     style="stroke:#ff0000;stroke-opacity:1" />
  <text
     text-anchor="middle"
     x="34"
     y="167.89999"
     font-family="arial"
     font-size="8px"
     id="text43"
     style="fill:#ff0000">binaries</text>
  <path
     fill="none"
     stroke="#000000"
     d="m 61.1,112.3 c -4.1,7.97 -9.05,17.6 -13.59,26.44"
     id="path48"
     style="fill:#000000;fill-opacity:1;stroke:#ff0000;stroke-opacity:1" />
  <polygon
     fill="#000000"
     stroke="#000000"
     points="38.8,-108.1 40.26,-118.6 46.48,-115.4 "
     id="polygon50"
     transform="translate(4,256)"
     style="stroke:#ff0000;stroke-opacity:1;fill:#ff0000;fill-opacity:1" />
  <polygon
     fill="#ffffff"
     stroke="#000000"
     points="129,-108 75,-108 75,-72 129,-72 "
     id="polygon55"
     transform="translate(4,256)"
     style="stroke:#ff0000;stroke-opacity:1" />
  <text
     text-anchor="middle"
     x="106"
     y="167.89999"
     font-family="arial"
     font-size="8px"
     id="text57"
     style="fill:#ff0000">headers</text>
  <path
     fill="none"
     stroke="#000000"
     d="m 78.9,112.3 c 4.1,7.97 9.05,17.6 13.59,26.44"
     id="path62"
     style="stroke:#ff0000;stroke-opacity:1" />
  <polygon
     fill="#000000"
     stroke="#000000"
     points="93.2,-108.1 85.52,-115.4 91.74,-118.6 "
     id="polygon64"
     transform="translate(4,256)"
     style="stroke:#ff0000;stroke-opacity:1;fill:#ff0000;fill-opacity:1" />
  <polygon
     fill="#ffffff"
     stroke="#000000"
     points="54,-36 0,-36 0,0 54,0 "
     id="polygon69"
     transform="translate(4,256)"
     style="stroke:#ff0000;stroke-opacity:1" />
  <text
     text-anchor="middle"
     x="31"
     y="239.89999"
     font-family="arial"
     font-size="8px"
     id="text71"
     style="fill:#ff0000">Magick++</text>
  <path
     fill="none"
     stroke="#000000"
     d="m 87.46,184.3 c -9.26,8.65 -20.62,19.25 -30.72,28.67"
     id="path76"
     style="stroke:#ff0000;stroke-opacity:1" />
  <polygon
     fill="#000000"
     stroke="#000000"
     points="45.33,-36.1 50.25,-45.49 55.02,-40.37 "
     id="polygon78"
     transform="translate(4,256)"
     style="stroke:#ff0000;stroke-opacity:1;fill:#ff0000;fill-opacity:1" />
  <polygon
     fill="#ffffff"
     stroke="#000000"
     points="131.5,-36 72.5,-36 72.5,0 131.5,0 "
     id="polygon83"
     transform="translate(4,256)"
     style="stroke:#ff0000;stroke-opacity:1" />
  <text
     text-anchor="middle"
     x="106"
     y="239.89999"
     font-family="arial"
     font-size="8px"
     id="text85"
     style="fill:#ff0000">MagickCore</text>
  <path
     fill="none"
     stroke="#000000"
     d="m 106,184.3 c 0,7.72 0,16.99 0,25.59"
     id="path90"
     style="stroke:#ff0000;stroke-opacity:1" />
  <polygon
     fill="#000000"
     stroke="#000000"
     points="102,-36.1 98.5,-46.1 105.5,-46.1 "
     id="polygon92"
     transform="translate(4,256)"
     style="stroke:#ff0000;stroke-opacity:1;fill:#ff0000;fill-opacity:1" />
  <polygon
     fill="#ffffff"
     stroke="#000000"
     points="212,-36 150,-36 150,0 212,0 "
     id="polygon97"
     transform="translate(4,256)"
     style="stroke:#ff0000;stroke-opacity:1" />
  <text
     text-anchor="middle"
     x="185"
     y="239.89999"
     font-family="arial"
     font-size="8px"
     id="text99"
     style="fill:#ff0000">MagickWand</text>
  <path
     fill="none"
     stroke="#000000"
     d="m 125.53,184.3 c 9.85,8.73 21.96,19.46 32.67,28.95"
     id="path104"
     style="stroke:#ff0000;stroke-opacity:1" />
  <polygon
     fill="#000000"
     stroke="#000000"
     points="161.7,-36.1 151.89,-40.12 156.53,-45.36 "
     id="polygon106"
     transform="translate(4,256)"
     style="stroke:#ff0000;stroke-opacity:1;fill:#ff0000;fill-opacity:1" />
</svg>
