<?xml version="1.0" encoding="UTF-8" standalone="no"?>
<!DOCTYPE svg PUBLIC "-//W3C//DTD SVG 1.1//EN"
 "http://www.w3.org/Graphics/SVG/1.1/DTD/svg11.dtd">
<!-- Generated by graphviz version 2.43.0 (0)
 -->
<!-- Title: G Pages: 1 -->
<svg width="638pt" height="116pt"
 viewBox="0.00 0.00 638.00 116.00" xmlns="http://www.w3.org/2000/svg" xmlns:xlink="http://www.w3.org/1999/xlink">
<g id="graph0" class="graph" transform="scale(1 1) rotate(0) translate(4 112)">
<title>G</title>
<!-- tasks_1 -->
<g id="node1" class="node">
<title>tasks_1</title>
<polygon fill="white" stroke="black" points="342,-108 288,-108 288,-72 342,-72 342,-108"/>
<text text-anchor="middle" x="315" y="-88.1" font-family="arial" font-size="8.00">tasks</text>
</g>
<!-- blur_2 -->
<g id="node2" class="node">
<title>blur_2</title>
<polygon fill="white" stroke="black" points="54,-36 0,-36 0,0 54,0 54,-36"/>
<text text-anchor="middle" x="27" y="-16.1" font-family="arial" font-size="8.00">blur</text>
</g>
<!-- tasks_1&#45;&gt;blur_2 -->
<g id="edge1" class="edge">
<title>tasks_1&#45;&gt;blur_2</title>
<path fill="none" stroke="black" d="M287.97,-85.44C242.92,-79.05 149.72,-63.92 63.87,-35.88"/>
<polygon fill="black" stroke="black" points="64.84,-32.52 54.24,-32.67 62.62,-39.16 64.84,-32.52"/>
</g>
<!-- charcoal_3 -->
<g id="node3" class="node">
<title>charcoal_3</title>
<polygon fill="white" stroke="black" points="126,-36 72,-36 72,0 126,0 126,-36"/>
<text text-anchor="middle" x="99" y="-16.1" font-family="arial" font-size="8.00">charcoal</text>
</g>
<!-- tasks_1&#45;&gt;charcoal_3 -->
<g id="edge2" class="edge">
<title>tasks_1&#45;&gt;charcoal_3</title>
<path fill="none" stroke="black" d="M287.73,-82.38C253.9,-73.86 194.41,-57.9 135.73,-36"/>
<polygon fill="black" stroke="black" points="136.92,-32.71 126.33,-32.44 134.44,-39.26 136.92,-32.71"/>
</g>
<!-- grayscale_4 -->
<g id="node4" class="node">
<title>grayscale_4</title>
<polygon fill="white" stroke="black" points="198,-36 144,-36 144,0 198,0 198,-36"/>
<text text-anchor="middle" x="171" y="-16.1" font-family="arial" font-size="8.00">grayscale</text>
</g>
<!-- tasks_1&#45;&gt;grayscale_4 -->
<g id="edge3" class="edge">
<title>tasks_1&#45;&gt;grayscale_4</title>
<path fill="none" stroke="black" d="M287.91,-75.83C265.23,-64.81 232.64,-48.97 207.63,-36.81"/>
<polygon fill="black" stroke="black" points="208.98,-33.57 198.45,-32.35 205.92,-39.87 208.98,-33.57"/>
</g>
<!-- jpg2png_5 -->
<g id="node5" class="node">
<title>jpg2png_5</title>
<polygon fill="white" stroke="black" points="270,-36 216,-36 216,0 270,0 270,-36"/>
<text text-anchor="middle" x="243" y="-16.1" font-family="arial" font-size="8.00">jpg2png</text>
</g>
<!-- tasks_1&#45;&gt;jpg2png_5 -->
<g id="edge4" class="edge">
<title>tasks_1&#45;&gt;jpg2png_5</title>
<path fill="none" stroke="black" d="M297.2,-71.7C288.4,-63.14 277.62,-52.66 268,-43.3"/>
<polygon fill="black" stroke="black" points="270.2,-40.57 260.59,-36.1 265.32,-45.58 270.2,-40.57"/>
</g>
<!-- mirror_6 -->
<g id="node6" class="node">
<title>mirror_6</title>
<polygon fill="white" stroke="black" points="342,-36 288,-36 288,0 342,0 342,-36"/>
<text text-anchor="middle" x="315" y="-16.1" font-family="arial" font-size="8.00">mirror</text>
</g>
<!-- tasks_1&#45;&gt;mirror_6 -->
<g id="edge5" class="edge">
<title>tasks_1&#45;&gt;mirror_6</title>
<path fill="none" stroke="black" d="M315,-71.7C315,-63.98 315,-54.71 315,-46.11"/>
<polygon fill="black" stroke="black" points="318.5,-46.1 315,-36.1 311.5,-46.1 318.5,-46.1"/>
</g>
<!-- mosaic_7 -->
<g id="node7" class="node">
<title>mosaic_7</title>
<polygon fill="white" stroke="black" points="414,-36 360,-36 360,0 414,0 414,-36"/>
<text text-anchor="middle" x="387" y="-16.1" font-family="arial" font-size="8.00">mosaic</text>
</g>
<!-- tasks_1&#45;&gt;mosaic_7 -->
<g id="edge6" class="edge">
<title>tasks_1&#45;&gt;mosaic_7</title>
<path fill="none" stroke="black" d="M332.8,-71.7C341.6,-63.14 352.38,-52.66 362,-43.3"/>
<polygon fill="black" stroke="black" points="364.68,-45.58 369.41,-36.1 359.8,-40.57 364.68,-45.58"/>
</g>
<!-- oilpaint_8 -->
<g id="node8" class="node">
<title>oilpaint_8</title>
<polygon fill="white" stroke="black" points="486,-36 432,-36 432,0 486,0 486,-36"/>
<text text-anchor="middle" x="459" y="-16.1" font-family="arial" font-size="8.00">oilpaint</text>
</g>
<!-- tasks_1&#45;&gt;oilpaint_8 -->
<g id="edge7" class="edge">
<title>tasks_1&#45;&gt;oilpaint_8</title>
<path fill="none" stroke="black" d="M342.09,-75.83C364.77,-64.81 397.36,-48.97 422.37,-36.81"/>
<polygon fill="black" stroke="black" points="424.08,-39.87 431.55,-32.35 421.02,-33.57 424.08,-39.87"/>
</g>
<!-- png2jpg_9 -->
<g id="node9" class="node">
<title>png2jpg_9</title>
<polygon fill="white" stroke="black" points="558,-36 504,-36 504,0 558,0 558,-36"/>
<text text-anchor="middle" x="531" y="-16.1" font-family="arial" font-size="8.00">png2jpg</text>
</g>
<!-- tasks_1&#45;&gt;png2jpg_9 -->
<g id="edge8" class="edge">
<title>tasks_1&#45;&gt;png2jpg_9</title>
<path fill="none" stroke="black" d="M342.27,-82.38C376.1,-73.86 435.59,-57.9 494.27,-36"/>
<polygon fill="black" stroke="black" points="495.56,-39.26 503.67,-32.44 493.08,-32.71 495.56,-39.26"/>
</g>
<!-- rotate_10 -->
<g id="node10" class="node">
<title>rotate_10</title>
<polygon fill="white" stroke="black" points="630,-36 576,-36 576,0 630,0 630,-36"/>
<text text-anchor="middle" x="603" y="-16.1" font-family="arial" font-size="8.00">rotate</text>
</g>
<!-- tasks_1&#45;&gt;rotate_10 -->
<g id="edge9" class="edge">
<title>tasks_1&#45;&gt;rotate_10</title>
<path fill="none" stroke="black" d="M342.03,-85.44C387.08,-79.05 480.28,-63.92 566.13,-35.88"/>
<polygon fill="black" stroke="black" points="567.38,-39.16 575.76,-32.67 565.16,-32.52 567.38,-39.16"/>
</g>
</g>
</svg>
