<?xml version="1.0" encoding="UTF-8" standalone="no"?>
<!DOCTYPE svg PUBLIC "-//W3C//DTD SVG 1.1//EN"
 "http://www.w3.org/Graphics/SVG/1.1/DTD/svg11.dtd">
<!-- Generated by graphviz version 2.43.0 (0)
 -->
<!-- Title: G Pages: 1 -->
<svg width="206pt" height="188pt"
 viewBox="0.00 0.00 206.00 188.00" xmlns="http://www.w3.org/2000/svg" xmlns:xlink="http://www.w3.org/1999/xlink">
<g id="graph0" class="graph" transform="scale(1 1) rotate(0) translate(4 184)">
<title>G</title>
<!-- simple_options_file_parser_1 -->
<g id="node1" class="node">
<title>simple_options_file_parser_1</title>
<polygon fill="white" stroke="black" points="154.5,-180 43.5,-180 43.5,-144 154.5,-144 154.5,-180"/>
<text text-anchor="middle" x="99" y="-160.1" font-family="arial" font-size="8.00">simple_options_file_parser</text>
</g>
<!-- docs_2 -->
<g id="node2" class="node">
<title>docs_2</title>
<polygon fill="white" stroke="black" points="54,-108 0,-108 0,-72 54,-72 54,-108"/>
<text text-anchor="middle" x="27" y="-88.1" font-family="arial" font-size="8.00">docs</text>
</g>
<!-- simple_options_file_parser_1&#45;&gt;docs_2 -->
<g id="edge1" class="edge">
<title>simple_options_file_parser_1&#45;&gt;docs_2</title>
<path fill="none" stroke="black" d="M81.2,-143.7C72.4,-135.14 61.62,-124.66 52,-115.3"/>
<polygon fill="black" stroke="black" points="54.2,-112.57 44.59,-108.1 49.32,-117.58 54.2,-112.57"/>
</g>
<!-- resources_4 -->
<g id="node4" class="node">
<title>resources_4</title>
<polygon fill="white" stroke="black" points="126,-108 72,-108 72,-72 126,-72 126,-108"/>
<text text-anchor="middle" x="99" y="-88.1" font-family="arial" font-size="8.00">resources</text>
</g>
<!-- simple_options_file_parser_1&#45;&gt;resources_4 -->
<g id="edge3" class="edge">
<title>simple_options_file_parser_1&#45;&gt;resources_4</title>
<path fill="none" stroke="black" d="M99,-143.7C99,-135.98 99,-126.71 99,-118.11"/>
<polygon fill="black" stroke="black" points="102.5,-118.1 99,-108.1 95.5,-118.1 102.5,-118.1"/>
</g>
<!-- src_5 -->
<g id="node5" class="node">
<title>src_5</title>
<polygon fill="white" stroke="black" points="198,-108 144,-108 144,-72 198,-72 198,-108"/>
<text text-anchor="middle" x="171" y="-88.1" font-family="arial" font-size="8.00">src</text>
</g>
<!-- simple_options_file_parser_1&#45;&gt;src_5 -->
<g id="edge4" class="edge">
<title>simple_options_file_parser_1&#45;&gt;src_5</title>
<path fill="none" stroke="black" d="M116.8,-143.7C125.6,-135.14 136.38,-124.66 146,-115.3"/>
<polygon fill="black" stroke="black" points="148.68,-117.58 153.41,-108.1 143.8,-112.57 148.68,-117.58"/>
</g>
<!-- images_3 -->
<g id="node3" class="node">
<title>images_3</title>
<polygon fill="white" stroke="black" points="54,-36 0,-36 0,0 54,0 54,-36"/>
<text text-anchor="middle" x="27" y="-16.1" font-family="arial" font-size="8.00">images</text>
</g>
<!-- docs_2&#45;&gt;images_3 -->
<g id="edge2" class="edge">
<title>docs_2&#45;&gt;images_3</title>
<path fill="none" stroke="black" d="M27,-71.7C27,-63.98 27,-54.71 27,-46.11"/>
<polygon fill="black" stroke="black" points="30.5,-46.1 27,-36.1 23.5,-46.1 30.5,-46.1"/>
</g>
</g>
</svg>
